<?xml version="1.0" standalone="no"?>
<!DOCTYPE svg PUBLIC "-//W3C//DTD SVG 1.1//EN" "http://www.w3.org/Graphics/SVG/1.1/DTD/svg11.dtd" >
<svg xmlns="http://www.w3.org/2000/svg">
<metadata></metadata>
<defs>
<font id="bauhausdemi" horiz-adv-x="1138" >
<font-face units-per-em="2048" ascent="1638" descent="-410" />
<missing-glyph horiz-adv-x="569" />
<glyph horiz-adv-x="2048" />
<glyph horiz-adv-x="2048" />
<glyph unicode="&#xd;" horiz-adv-x="569" />
<glyph unicode=" "  horiz-adv-x="569" />
<glyph unicode="&#x09;" horiz-adv-x="569" />
<glyph unicode="&#xa0;" horiz-adv-x="569" />
<glyph unicode="!" horiz-adv-x="569" d="M115 162q0 72 48 121t122 49t122 -49.5t48 -120.5q0 -72 -48.5 -121t-121.5 -49q-74 0 -122 49t-48 121zM119 1458h332l-27 -1046h-279z" />
<glyph unicode="&#x22;" horiz-adv-x="681" d="M49 879v555h230v-555h-230zM406 879v555h229v-555h-229z" />
<glyph unicode="#" d="M57 410l6 184h199l35 246h-180l6 184h199l57 410h199l-56 -410h197l57 410h199l-55 -410h161l-6 -184h-180l-35 -246h162l-6 -184h-182l-58 -410h-198l55 410h-197l-57 -410h-199l56 410h-179zM463 594h196l35 246h-196z" />
<glyph unicode="$" d="M180 1079q0 143 81 229.5t222 100.5v213h181v-213h223v-238h-330q-102 0 -102 -77q0 -51 127 -133q184 -123 233 -168q127 -119 127 -252q0 -139 -72.5 -234.5t-205.5 -122.5v-250h-181v250h-278v250h360q102 0 103 80q0 61 -127 152q-207 147 -234 172 q-127 117 -127 241z" />
<glyph unicode="%" horiz-adv-x="1820" d="M66 1071q0 152 103 257.5t259 105.5t259.5 -105.5t103.5 -257.5t-103.5 -257t-259.5 -105t-259 105t-103 257zM266 1071q0 -68 47 -115t115 -47t115 47.5t47 114.5q0 68 -47 115t-115 47t-115 -47t-47 -115zM328 -2l927 1436h177l-922 -1436h-182zM963 362 q0 152 103 257.5t259 105.5t259.5 -105.5t103.5 -257.5t-103.5 -257t-259.5 -105t-259 105t-103 257zM1163 362q0 -68 47 -114.5t115 -46.5t115 47t47 114q0 68 -47 115t-115 47t-115 -47t-47 -115z" />
<glyph unicode="&#x26;" horiz-adv-x="1593" d="M143 565q0 141 70 264t190 199q-76 76 -75 186q0 94 70.5 157t195.5 63h567v-287h-510l471 -563h4q0 209 -114 313l198 188q211 -207 211 -448q0 -172 -86 -309l267 -328h-355l-84 115q-162 -139 -413 -140q-262 0 -434.5 165t-172.5 425zM455 555q0 -125 85 -213 t203 -88q152 0 234 92l-395 477q-127 -96 -127 -268z" />
<glyph unicode="'" horiz-adv-x="454" d="M113 879v555h229v-555h-229z" />
<glyph unicode="(" horiz-adv-x="909" d="M197 496q0 285 116.5 537.5t337.5 424.5l152 -155q-180 -147 -282.5 -359.5t-102.5 -447.5q0 -236 102.5 -448t282.5 -359l-152 -156q-221 172 -340 428q-115 250 -114 535z" />
<glyph unicode=")" horiz-adv-x="909" d="M106 -311q180 147 283 359t103 448t-103 448t-283 359l152 155q221 -172 338 -425t117 -537q0 -285 -115 -535q-119 -256 -340 -428z" />
<glyph unicode="*" horiz-adv-x="1024" d="M139 1159l117 189l209 -195l4 4l-57 277h202l-57 -277l4 -4l209 195l117 -189l-283 -88v-4l281 -88l-105 -193l-215 197l-4 -4l62 -283h-220l62 283l-4 4l-215 -197l-105 193l281 88v4z" />
<glyph unicode="+" horiz-adv-x="1228" d="M119 387v221h385v387h221v-387h385v-221h-385v-387h-221v387h-385z" />
<glyph unicode="," horiz-adv-x="569" d="M33 -356l119 618h294l-206 -618h-207z" />
<glyph unicode="-" horiz-adv-x="681" d="M104 383v229h474v-229h-474z" />
<glyph unicode="." horiz-adv-x="569" d="M115 162q0 72 48 121t122 49t122 -49.5t48 -120.5q0 -72 -48.5 -121t-121.5 -49q-74 0 -122 49t-48 121z" />
<glyph unicode="/" horiz-adv-x="569" d="M-57 -25l458 1483h224l-459 -1483h-223z" />
<glyph unicode="0" d="M72 451v532q0 205 135 340t362 135t362.5 -135t135.5 -340v-532q0 -205 -135 -340.5t-363 -135.5q-227 0 -362 135.5t-135 340.5zM375 451q0 -188 194 -189q195 1 195 189v532q0 188 -195 188t-194 -188v-532z" />
<glyph unicode="1" d="M213 1159v275h516v-1434h-295v1159h-221z" />
<glyph unicode="2" d="M57 172q0 72 35 125q33 47 166 180l297 295q166 164 166 260q0 51 -47 97.5t-125 46.5t-125 -46.5t-47 -105.5q0 -70 33.5 -122t87.5 -62l-209 -209q-100 55 -156 164q-51 100 -51 221q0 188 135 315t332 127t332 -127t135 -315q0 -137 -60 -238q-43 -76 -161 -186 l-332 -309h598v-283h-785q-219 0 -219 172z" />
<glyph unicode="3" d="M61 0v295h435q205 0 204 170q0 170 -204 170h-279v184l418 338v2h-549v275h598q139 0 215 -66q68 -59 68 -147q0 -117 -107 -213q-98 -76 -196 -154q164 -29 268 -139.5t104 -274.5q0 -229 -151 -342q-133 -98 -367 -98h-457z" />
<glyph unicode="4" d="M25 500q0 90 77 221l426 713h297l-518 -856h344v401l244 414q18 31 37 59q2 -10 2 -55v-819h137v-275h-137v-303h-283v303h-428q-82 0 -137 49q-61 55 -61 148z" />
<glyph unicode="5" d="M100 0v287h392q115 0 165 32q68 43 68 152t-68 152q-51 33 -165 32h-361v779h803v-275h-508v-229h180q168 0 297 -117q145 -133 146 -348q0 -215 -146 -348q-129 -117 -297 -117h-506z" />
<glyph unicode="6" d="M66 479q0 131 114 340l336 615h348l-442 -793q-53 -96 -53 -162q0 -88 57 -144t143 -56t143.5 56t57.5 144q0 201 -215 213l145 271q168 -41 270.5 -175.5t102.5 -308.5q0 -219 -141 -361.5t-363 -142.5q-221 0 -362 142.5t-141 361.5z" />
<glyph unicode="7" d="M123 1147v287h659q98 0 166 -47.5t68 -120.5q0 -84 -45 -219l-348 -1047h-328l412 1147h-584z" />
<glyph unicode="8" d="M66 446q0 231 219 336q-170 78 -170 283q0 182 137 293q127 100 321 100q188 0 314 -100q133 -111 133 -293q0 -207 -166 -283q219 -105 219 -336q0 -227 -141 -352q-133 -119 -363 -119q-229 0 -362 119q-141 125 -141 352zM369 442q0 -86 57 -143t143 -57t143.5 58 t57.5 142t-57.5 142.5t-143.5 58.5t-143 -57.5t-57 -143.5zM397 1051q0 -74 48.5 -122t119.5 -48q72 0 122 48t50 122t-50 122t-122 48t-120 -48.5t-48 -121.5z" />
<glyph unicode="9" d="M66 954q0 219 141 361.5t362 142.5t362.5 -142t141.5 -362q0 -131 -115 -340l-335 -614h-349l443 793q53 96 53 161q0 88 -57.5 144.5t-143.5 56.5t-143 -56.5t-57 -144.5q0 -201 215 -213l-146 -270q-168 41 -270 175t-102 308z" />
<glyph unicode=":" horiz-adv-x="569" d="M115 162q0 72 48 121t122 49t122 -49.5t48 -120.5q0 -72 -48.5 -121t-121.5 -49q-74 0 -122 49t-48 121zM115 780q0 72 48 121t122 49t122 -49t48 -121t-48.5 -121t-121.5 -49q-74 0 -122 49.5t-48 120.5z" />
<glyph unicode=";" horiz-adv-x="569" d="M33 -356l119 618h294l-206 -618h-207zM115 780q0 72 48 121t122 49t122 -49t48 -121t-48.5 -121t-121.5 -49q-74 0 -122 49.5t-48 120.5z" />
<glyph unicode="&#x3c;" horiz-adv-x="1228" d="M119 412v172l991 411v-207l-715 -290l715 -291v-207z" />
<glyph unicode="=" horiz-adv-x="1228" d="M119 172v221h991v-221h-991zM119 602v221h991v-221h-991z" />
<glyph unicode="&#x3e;" horiz-adv-x="1228" d="M119 0v207l715 291l-715 290v207l991 -411v-172z" />
<glyph unicode="?" horiz-adv-x="1024" d="M35 1094q41 162 167 263t292 101q219 0 350 -128t131 -347q0 -139 -97.5 -252t-234.5 -131v-182h-283v413q182 0 252 50q55 39 56 131q0 72 -47.5 118t-131.5 46q-121 0 -176 -152zM322 162q0 72 48 121t122 49t122 -49.5t48 -120.5q0 -72 -48.5 -121t-121.5 -49 q-74 0 -122 49t-48 121z" />
<glyph unicode="@" horiz-adv-x="1638" d="M94 715q0 313 222.5 528t537.5 215q276 0 477 -164q213 -174 213 -440q0 -287 -205 -453q-154 -123 -299 -122q-104 0 -108 104l-4 2q-94 -106 -199 -106q-129 0 -226 105t-97 247q0 188 112 325q119 145 299 146q158 0 240 -123l22 98h181l-101 -485q-12 -59 -12 -74 q0 -43 29 -43q76 0 135 82q66 92 65 242q0 233 -149 366q-143 125 -379 125q-248 0 -398.5 -161.5t-150.5 -413.5q0 -260 162 -416t420 -156q227 0 393 140h184q-217 -307 -594 -308q-322 0 -542 209q-227 213 -228 531zM631 662q0 -74 41 -122t110 -48q94 0 155.5 73.5 t61.5 167.5q0 72 -44 118t-113 46q-88 0 -149.5 -73.5t-61.5 -161.5z" />
<glyph unicode="A" horiz-adv-x="1251" d="M111 0v934q0 213 116 356q139 168 398 168q258 0 397 -168q119 -143 119 -356v-934h-320v516h-311v279h311v192q0 193 -196 193q-195 0 -195 -193v-987h-319z" />
<glyph unicode="B" d="M106 0v946q0 512 478 512q184 0 308 -117.5t124 -300.5q0 -186 -144 -274q197 -98 197 -346q0 -182 -107.5 -301t-283.5 -119h-209v287h162q63 0 99 44t36 115q0 166 -156 166h-141v250h76q168 0 168 150q0 70 -41 114.5t-111 44.5q-168 0 -168 -196v-975h-287z" />
<glyph unicode="C" horiz-adv-x="1024" d="M61 717q0 313 209 522q197 195 467 195h238v-287h-221q-152 0 -262.5 -136.5t-110.5 -293.5q0 -158 108 -291q113 -139 265 -139h221v-287h-238q-270 0 -467 197q-209 207 -209 520z" />
<glyph unicode="D" horiz-adv-x="1366" d="M123 0v1434h512q236 0 436 -189q227 -215 227 -540q0 -309 -203.5 -507t-496.5 -198h-86v287h86q160 0 281 133q117 127 116 287q0 205 -131 327q-123 113 -311 113h-127v-1147h-303z" />
<glyph unicode="E" horiz-adv-x="1024" d="M57 717q0 293 168 491q193 225 537 226h158v-287h-185q-160 0 -260 -96q-86 -82 -106 -201h551v-266h-551q20 -119 106 -201q100 -96 260 -96h185v-287h-158q-344 0 -537 227q-168 197 -168 490z" />
<glyph unicode="F" horiz-adv-x="909" d="M90 0v983q0 203 103 322q111 129 311 129h330v-287h-259q-182 0 -182 -172v-152h441v-286h-441v-537h-303z" />
<glyph unicode="G" horiz-adv-x="1593" d="M66 717q0 307 207.5 524t523.5 217q356 0 587 -223l-192 -221q-61 68 -158 112q-104 45 -213 45q-190 0 -313 -131t-123 -315t123 -315t313 -131q133 0 247 91t136 214h-397v266h717v-195q0 -244 -183 -446q-213 -233 -544 -234q-315 0 -523 217.5t-208 524.5z" />
<glyph unicode="H" horiz-adv-x="1251" d="M127 0v1434h303v-516h389v516h303v-1434h-303v631h-389v-631h-303z" />
<glyph unicode="I" horiz-adv-x="569" d="M133 0v1434h303v-1434h-303z" />
<glyph unicode="J" horiz-adv-x="681" d="M10 0v303q152 0 202 44t50 175v912h303v-906q0 -309 -137 -426q-121 -102 -418 -102z" />
<glyph unicode="K" d="M111 0v1434h303v-537q102 0 143 29q31 20 64 96l176 412h331l-170 -377q-86 -193 -186 -228v-4q131 -10 214 -86.5t83 -197.5v-541h-303v479q0 139 -131 139h-221v-618h-303z" />
<glyph unicode="L" horiz-adv-x="796" d="M115 430v1004h303v-963q0 -94 38 -131t117 -37h228v-303h-301q-385 0 -385 430z" />
<glyph unicode="M" horiz-adv-x="1705" d="M41 0l141 1155q37 303 252 303t264 -213l154 -678h4l150 678q47 213 264 213q215 0 252 -303l141 -1155h-326l-100 1110h-4l-260 -1032q-14 -53 -43 -71.5t-88 -18.5q-72 0 -99 26q-23 20 -32 64l-238 1032h-4l-111 -1110h-317z" />
<glyph unicode="N" horiz-adv-x="1366" d="M117 0v1249q0 92 56 150.5t153 58.5q160 0 260 -209l352 -735h6v920h303v-1252q0 -207 -170 -207q-88 0 -147 56q-45 45 -101 159l-405 838l-4 -4v-1024h-303z" />
<glyph unicode="O" horiz-adv-x="1593" d="M66 717q0 307 208 524t523 217t526 -219q205 -215 205 -522t-205 -522q-211 -219 -526 -220q-315 0 -523 217.5t-208 524.5zM481 403q121 -133 316 -133t315 133q113 127 113 314q0 186 -113 313q-120 133 -315 133t-316 -133q-112 -126 -112 -310q0 -189 112 -317z" />
<glyph unicode="P" d="M100 0v969q0 205 136.5 347t361.5 142q219 0 358.5 -141t139.5 -348t-133 -346q-139 -143 -365 -144h-111v287q150 0 218 33q88 45 88 168q0 96 -52.5 150t-142.5 54t-142.5 -54t-52.5 -150v-967h-303z" />
<glyph unicode="Q" horiz-adv-x="1593" d="M66 717q0 307 207.5 524t523.5 217q315 0 522 -216t209 -525v-7q0 -267 -163 -467q-165 -202 -419 -255v-197h-262v705h262v-197q111 20 195 148t84 270q0 186 -113 313q-121 133 -315 133q-195 0 -316 -133q-113 -127 -112 -313q0 -258 223 -398v-319q-231 70 -377 260 q-150 199 -149 457z" />
<glyph unicode="R" d="M106 0v983q0 193 109 320q132 155 396 155h3q205 0 328 -135q111 -123 111 -291q0 -213 -179 -297q123 -47 164 -125q35 -66 35 -202v-408h-303v406q0 163 -160 163h-2h-114v267q256 0 256 168q0 80 -49.5 123.5t-120.5 43.5q-72 0 -121 -44t-49 -123v-1004h-304z" />
<glyph unicode="S" horiz-adv-x="1024" d="M68 1053q0 184 116 290q102 90 240 91h479v-267h-409q-106 0 -107 -108q0 -49 148 -154q217 -152 274 -205q147 -137 147 -266q0 -178 -84 -293q-106 -141 -321 -141h-479v287h471q41 0 67.5 28.5t26.5 73.5q0 57 -148 160q-215 147 -274 205q-147 143 -147 299z" />
<glyph unicode="T" horiz-adv-x="909" d="M-8 1147v287h926v-287h-312v-1147h-303v1147h-311z" />
<glyph unicode="U" horiz-adv-x="1251" d="M125 422v1012h303v-926q0 -238 199 -238q197 0 196 238v926h303l2 -1012q0 -182 -122 -307q-137 -139 -379 -140q-242 0 -379 140q-123 125 -123 307z" />
<glyph unicode="V" d="M-20 1434h323l252 -1102h4l277 1102h323l-319 -1205q-33 -125 -88 -182q-70 -72 -197 -72t-197 72q-57 57 -88 182z" />
<glyph unicode="W" horiz-adv-x="1820" d="M123 344v1090h303v-910q0 -133 18 -178q33 -84 148 -84t147 84q18 45 19 178v910h303v-910q0 -133 18 -178q33 -84 148 -84t147 84q18 45 19 178v910h303v-1090q0 -156 -121 -262.5t-301 -106.5q-217 0 -365 158q-145 -158 -364 -158q-180 0 -301 106.5t-121 262.5z" />
<glyph unicode="X" horiz-adv-x="1024" d="M37 0v283q158 37 240.5 153.5t82.5 286.5t-82.5 285.5t-240.5 142.5v283q164 0 288 -88.5t185 -237.5q63 150 188 238t289 88v-283q-158 -27 -240.5 -142.5t-82.5 -285.5t82.5 -287t240.5 -153v-283q-160 0 -290 95t-183 249h-4q-53 -154 -183 -249t-290 -95z" />
<glyph unicode="Y" d="M102 909v525h304v-422q0 -213 163 -213q164 0 164 213v422h303v-525q0 -289 -315 -385v-524h-303v524q-166 51 -248 166q-68 94 -68 219z" />
<glyph unicode="Z" horiz-adv-x="1024" d="M27 147q0 111 47 187l501 813h-481v287h688q70 0 120 -53.5t50 -125.5q0 -68 -69 -182l-480 -786h578v-287h-793q-68 0 -114.5 47t-46.5 100z" />
<glyph unicode="[" horiz-adv-x="681" d="M156 -442v1876h405v-140h-196v-1597h196v-139h-405z" />
<glyph unicode="\" horiz-adv-x="569" d="M-143 1458h221l637 -1483h-221z" />
<glyph unicode="]" horiz-adv-x="681" d="M121 -303h196v1597h-196v140h405v-1876h-405v139z" />
<glyph unicode="^" horiz-adv-x="1228" d="M143 666l369 768h205l368 -768h-225l-246 542l-247 -542h-224z" />
<glyph unicode="_" horiz-adv-x="1024" d="M0 -154h1024v-102h-1024v102z" />
<glyph unicode="`" horiz-adv-x="454" d="M-109 1434h316l190 -295h-202z" />
<glyph unicode="a" d="M66 487q0 236 141 387q137 145 346 146q221 0 356 -125t135 -322v-573h-262v561q0 90 -63.5 143.5t-169.5 53.5q-94 0 -157.5 -76t-63.5 -184q0 -100 65.5 -170t163.5 -70q68 0 150 31v-273q-98 -24 -161 -24h-5q-221 0 -353 149q-123 139 -122 346z" />
<glyph unicode="b" d="M94 500v934h262v-936q0 -109 65.5 -178.5t168.5 -69.5q94 0 157.5 69.5t63.5 178.5t-64.5 178t-164.5 69q-74 0 -142 -30v276q102 29 158 29q205 0 342 -160q133 -152 133 -360q0 -221 -137 -373t-350 -152q-215 0 -353.5 152t-138.5 373z" />
<glyph unicode="c" horiz-adv-x="796" d="M61 498q0 229 131.5 363t360.5 134h182v-262h-174q-109 0 -173 -65.5t-64 -169.5t64.5 -170t172.5 -66h174v-262h-182q-229 0 -360.5 134t-131.5 364z" />
<glyph unicode="d" d="M66 500q0 209 133 360q137 160 342 160q55 0 157 -29v-276q-66 30 -136 30h-5q-100 0 -164.5 -69.5t-64.5 -177.5q0 -109 63.5 -178.5t157.5 -69.5q102 0 167.5 69.5t65.5 178.5v936h262v-934q0 -221 -138 -373t-353 -152q-213 0 -350 152t-137 373z" />
<glyph unicode="e" d="M49 498q0 219 135 368q143 154 369 154q186 0 317 -90q111 -78 166 -205l-506 -379l-127 166l261 201q-39 45 -129 45q-96 0 -160 -76t-64 -184q0 -98 68 -176q74 -84 184 -84q100 0 173 57.5t89 155.5l265 -29q-37 -203 -182.5 -325t-354.5 -122q-225 0 -369 154 q-135 150 -135 369z" />
<glyph unicode="f" horiz-adv-x="569" d="M84 0v999q0 434 362 435h105v-263h-102q-102 0 -103 -100v-76h205v-254h-205v-741h-262z" />
<glyph unicode="g" d="M66 510q0 223 131 366.5t354 143.5q197 0 341 -139.5t144 -325.5v-481q0 -516 -520 -516q-178 0 -317 51v268q150 -57 311 -57q264 0 264 213v487q0 113 -72 178q-61 55 -151 56q-98 0 -160.5 -66.5t-62.5 -173.5q0 -106 62.5 -168.5t160.5 -62.5q68 0 145 24v-272 q-78 -27 -145 -27q-223 0 -354 140.5t-131 361.5z" />
<glyph unicode="h" horiz-adv-x="1024" d="M100 0v1434h262v-514h5q72 100 225 100q133 0 227 -84q104 -94 105 -248v-688h-262v598q0 160 -150 160t-150 -160v-598h-262z" />
<glyph unicode="i" horiz-adv-x="454" d="M72 1292q0 78 43.5 122t111.5 44t112 -44t44 -122t-44 -122t-112 -44t-111.5 44t-43.5 122zM96 0v995h262v-995h-262z" />
<glyph unicode="j" horiz-adv-x="454" d="M-106 -213h102q96 0 96 131v1077h262v-1028q0 -236 -73 -332q-80 -102 -283 -102h-104v254zM72 1292q0 78 43.5 122t111.5 44t112 -44t44 -122t-44 -122t-112 -44t-111.5 44t-43.5 122z" />
<glyph unicode="k" horiz-adv-x="1024" d="M102 0v1434h263v-775h75q72 0 119 105l103 231h292l-104 -231q-45 -100 -77 -137t-89 -49v-7q143 -25 199 -102q51 -70 51 -217v-252h-262v229q0 176 -158 177h-149v-406h-263z" />
<glyph unicode="l" horiz-adv-x="454" d="M96 0v1434h262v-1434h-262z" />
<glyph unicode="m" horiz-adv-x="1593" d="M98 0v688q0 160 110.5 246t297.5 86q164 0 297 -152q127 152 315 152q158 0 262 -84q115 -92 115 -248v-688h-274v598q0 160 -141 160h-3q-94 -2 -143 -92v-666h-275v598q0 160 -143 160t-143 -160v-598h-275z" />
<glyph unicode="n" horiz-adv-x="1024" d="M100 0v688q0 160 115 248q109 84 297 84t300 -86t112 -246v-688h-262v598q0 160 -150 160t-150 -160v-598h-262z" />
<glyph unicode="o" d="M66 498q0 219 135 368q143 154 368 154t369 -154q135 -150 135 -368q0 -219 -135 -369q-143 -154 -369 -154q-225 0 -368 154q-135 150 -135 369zM328 498q0 -123 65.5 -191.5t175.5 -68.5q111 0 176.5 68.5t65.5 191.5t-65.5 191.5t-176.5 68.5t-176 -68.5t-65 -191.5z " />
<glyph unicode="p" d="M94 -442v938q0 221 138.5 372.5t353.5 151.5q213 0 350 -151.5t137 -372.5q0 -209 -133 -361q-137 -160 -342 -160q-55 0 -158 29v277q68 -31 142 -31q100 0 164.5 69.5t64.5 178.5t-63.5 178t-157.5 69q-102 0 -168 -69.5t-66 -177.5v-940h-262z" />
<glyph unicode="q" d="M66 496q0 221 137 372.5t350 151.5q215 0 353 -151.5t138 -372.5v-938h-262v940q0 109 -65.5 178t-167.5 69q-94 0 -157.5 -69.5t-63.5 -177.5q0 -109 64.5 -178.5t164.5 -69.5q74 0 141 31v-277q-102 -29 -157 -29q-205 0 -342 160q-133 152 -133 361z" />
<glyph unicode="r" horiz-adv-x="681" d="M94 0v995h248v-188h4q70 201 252 201h55v-279h-63q-98 0 -157.5 -64.5t-59.5 -177.5v-487h-279z" />
<glyph unicode="s" horiz-adv-x="796" d="M47 0v246h338q74 0 74 55q0 49 -105 105q-164 88 -192 110q-104 80 -105 186q0 152 99 228q83 65 221 65h4h315v-245h-303q-65 0 -65 -44q0 -34 108 -88q150 -72 205 -114q109 -86 109 -201q0 -143 -94.5 -223t-241.5 -80h-367z" />
<glyph unicode="t" horiz-adv-x="569" d="M78 365v897h262v-267h190v-254h-190v-368q0 -111 90 -111h100v-262h-137q-315 0 -315 365z" />
<glyph unicode="u" horiz-adv-x="1024" d="M100 307v688h262v-598q0 -159 148 -159h2q150 0 150 159v598h262v-688q0 -160 -112 -246t-300 -86t-297 84q-115 88 -115 248z" />
<glyph unicode="v" horiz-adv-x="909" d="M-8 995h291l166 -659h4l168 659h294l-256 -823q-61 -197 -213 -197q-156 0 -213 197z" />
<glyph unicode="w" horiz-adv-x="1593" d="M106 332v663h275v-598q0 -159 141 -159h2q135 0 135 159v598h275v-598q0 -159 133 -159h2q143 0 143 159v598h275v-663q0 -172 -115 -269q-104 -88 -262 -88q-190 0 -322 168q-106 -168 -305 -168q-158 0 -262 88q-115 96 -115 269z" />
<glyph unicode="x" horiz-adv-x="796" d="M14 0v246h56q88 0 147 68.5t59 183.5t-59 183.5t-147 68.5h-56v245h68q90 0 181 -53t140 -145q94 198 312 198h2h65v-245h-53q-88 0 -147.5 -69t-59.5 -183q0 -115 59.5 -183.5t147.5 -68.5h55v-246h-67q-90 0 -178 51q-94 55 -144 148q-94 -199 -313 -199h-68z" />
<glyph unicode="y" horiz-adv-x="1024" d="M96 360v635h262v-581q0 -176 154 -176t154 176v581h262v-635q0 -307 -279 -368v-414h-274v414q-135 29 -209 131q-70 96 -70 237z" />
<glyph unicode="z" horiz-adv-x="909" d="M25 158q0 76 61 141l410 442h-410v254h569q96 0 148 -41q45 -37 45 -94q0 -121 -78 -207l-362 -399h440v-254h-639q-86 0 -135 45t-49 113z" />
<glyph unicode="{" horiz-adv-x="909" d="M20 412v184q63 0 119 29q78 39 78 114v420q0 127 96 209q78 66 162 66h195v-168h-113q-131 0 -131 -140v-413q0 -106 -74 -162q-51 -39 -123 -45v-6q197 -18 197 -221v-414q0 -139 131 -139h113v-168h-195q-84 0 -162 65q-96 82 -96 209v420q0 84 -78 129q-55 31 -119 31 z" />
<glyph unicode="|" horiz-adv-x="454" d="M117 0v1434h221v-1434h-221z" />
<glyph unicode="}" horiz-adv-x="909" d="M240 -274h112q131 0 131 139v414q0 106 74 161q51 39 123 45v7q-197 18 -197 221v413q0 139 -131 140h-112v168h194q84 0 162 -66q96 -82 96 -209v-420q0 -86 78 -129q55 -31 119 -30v-185q-63 0 -119 -28q-78 -39 -78 -115v-422q0 -125 -96 -207q-80 -66 -162 -65h-194 v168z" />
<glyph unicode="~" horiz-adv-x="1228" d="M141 498q92 176 256 176q78 0 228 -66q168 -74 209 -73q84 0 180 147l73 -184q-61 -86 -102 -121q-70 -55 -154 -55q-86 0 -208 67q-129 72 -236 72q-104 0 -172 -148z" />
<glyph unicode="&#xa1;" horiz-adv-x="569" d="M115 854q0 72 48 121t122 49t122 -49t48 -121t-48 -121t-122 -49t-122 49t-48 121zM119 -442l26 1046h279l27 -1046h-332z" />
<glyph unicode="&#xa2;" d="M94 721q0 158 88 268q92 119 256 144v301h160v-301h135v-218h-192q-209 0 -209 -194q0 -193 209 -193h192v-217h-135v-295h-160v295q-164 23 -256 142q-88 111 -88 268z" />
<glyph unicode="&#xa3;" d="M29 0v287q141 0 182 98q22 55 22 217h-129v287h129v158q0 412 461 411q66 0 197 -16v-287q-102 16 -154 16q-111 0 -155.5 -32.5t-44.5 -106.5v-143h198v-287h-198q0 -115 -17 -172q-25 -82 -98 -137l4 -6h250q109 0 162 66.5t55 224.5h287q0 -268 -123 -418 q-131 -160 -381 -160h-647z" />
<glyph unicode="&#xa4;" d="M39 309l119 119q-96 106 -97 289q0 195 97 289l-119 118l125 125l115 -116q109 92 290 92q184 0 283 -88l119 116l129 -131l-111 -114q88 -104 88 -291q0 -182 -92 -293l115 -115l-119 -119l-117 119q-111 -100 -295 -100q-186 0 -295 96l-114 -117zM291 717 q0 -125 80 -210t198 -85q119 0 199 85t80 210t-80 210t-199 85t-198.5 -85t-79.5 -210z" />
<glyph unicode="&#xa5;" d="M94 1151v283q164 0 291 -88q121 -88 184 -238q63 150 187.5 238t287.5 88v-283q-223 -39 -282 -217h211v-205h-252v-147h252v-205h-252v-377h-303v377h-252v205h252v147h-252v205h211q-74 182 -283 217z" />
<glyph unicode="&#xa6;" horiz-adv-x="454" d="M117 0v563h221v-563h-221zM117 870v564h221v-564h-221z" />
<glyph unicode="&#xa7;" horiz-adv-x="1024" d="M86 762q0 92 67.5 160.5t159.5 68.5q-100 100 -100 205q0 135 94 203q82 59 221 59q170 0 326 -166l-174 -123q-88 117 -164 117q-31 0 -52.5 -24.5t-21.5 -57.5q0 -49 129 -174q197 -193 238 -239q129 -152 129 -267q0 -197 -219 -229q109 -109 108 -240 q0 -129 -98 -198q-88 -61 -223 -62q-199 0 -342 176l170 129q63 -133 155 -133q109 0 109 92q0 53 -133 187q-219 219 -246 252q-133 156 -133 264zM315 784q0 -49 136.5 -195.5t185.5 -146.5q72 0 72 66q0 57 -137.5 202.5t-188.5 145.5q-68 0 -68 -72z" />
<glyph unicode="&#xa8;" horiz-adv-x="454" d="M-117 1274q0 59 41.5 101t102.5 42t102 -42t41 -101t-41 -101.5t-102 -42.5t-102.5 42t-41.5 102zM285 1274q0 59 41 101t102 42t102 -42t41 -101t-41 -101.5t-102 -42.5t-102 42t-41 102z" />
<glyph unicode="&#xa9;" horiz-adv-x="1638" d="M53 717q0 336 234 545q219 196 532 196t533 -196q233 -209 233 -545t-233 -545q-219 -197 -533 -197q-313 0 -532 197q-233 209 -234 545zM283 717q0 -248 154.5 -406.5t381.5 -158.5t382 158.5t155 406.5t-156 409q-154 156 -381 156t-381 -156q-156 -162 -155 -409z M434 723q0 186 114 309t296 123q139 0 235 -80q102 -86 121 -233h-176q-8 137 -180 137q-88 0 -144.5 -74t-56.5 -182q0 -109 56.5 -182.5t144.5 -73.5q172 0 180 137h176q-18 -147 -117.5 -230t-238.5 -83q-182 0 -296 123t-114 309z" />
<glyph unicode="&#xaa;" horiz-adv-x="684" d="M8 1139q0 141 93.5 230t230.5 89q147 0 239.5 -75.5t92.5 -192.5v-344h-189v330q0 123 -139 122q-63 0 -101 -42t-38 -103q0 -147 139 -147q51 0 90 18v-168q-57 -14 -102 -14q-143 0 -232 90q-84 84 -84 207z" />
<glyph unicode="&#xab;" horiz-adv-x="1024" d="M96 498l254 315h205l-256 -315l260 -316h-203zM465 498l254 315h205l-256 -315l260 -316h-203z" />
<glyph unicode="&#xac;" horiz-adv-x="1228" d="M119 602v221h991v-651h-221v430h-770z" />
<glyph unicode="&#xad;" horiz-adv-x="681" d="M104 383v229h474v-229h-474z" />
<glyph unicode="&#xae;" horiz-adv-x="1638" d="M53 717q0 336 234 545q219 196 532 196t533 -196q233 -209 233 -545t-233 -545q-219 -197 -533 -197q-313 0 -532 197q-233 209 -234 545zM283 717q0 -248 154.5 -406.5t381.5 -158.5t382 158.5t155 406.5t-156 409q-154 156 -381 156t-381 -156q-156 -162 -155 -409z M518 311v815h305q166 0 244 -53q84 -59 84 -194q0 -203 -219 -215l211 -353h-178l-189 340h-82v-340h-176zM694 791h142q68 0 96 14q43 23 43 84t-43 84q-29 14 -96 14h-142v-196z" />
<glyph unicode="&#xaf;" horiz-adv-x="454" d="M-127 1202v152h711v-152h-711z" />
<glyph unicode="&#xb0;" horiz-adv-x="819" d="M117 1165q0 123 85 208t208 85t207.5 -85t84.5 -208t-85 -208t-207 -85q-123 0 -208 85t-85 208zM264 1165q0 -74 41 -113.5t105 -39.5q63 0 104 40t41 113q0 74 -41 114t-104 40t-104.5 -40t-41.5 -114z" />
<glyph unicode="&#xb1;" horiz-adv-x="1228" d="M119 0v221h991v-221h-991zM119 528v222h385v245h221v-245h385v-222h-385v-247h-221v247h-385z" />
<glyph unicode="&#xb2;" horiz-adv-x="681" d="M6 686q0 53 45 105q8 8 86 79l193 177q109 98 108 155q0 31 -29.5 57.5t-74.5 26.5t-74 -26.5t-29 -61.5q0 -39 19.5 -71.5t42.5 -39.5l-143 -124q-127 70 -127 231q0 113 90 188.5t225 75.5q131 0 220 -75.5t89 -188.5q0 -82 -39 -143q-29 -47 -106 -113l-215 -182h381 v-172h-518q-143 0 -144 102z" />
<glyph unicode="&#xb3;" horiz-adv-x="681" d="M29 584v176h276q133 0 133 102t-133 103h-180v110l272 201v4h-354v164h395q90 0 142 -39q43 -35 43 -88q0 -72 -70 -129q-63 -45 -127 -92q106 -18 172 -82q70 -70 70 -166q0 -264 -338 -264h-301z" />
<glyph unicode="&#xb4;" horiz-adv-x="454" d="M57 1139l191 295h315l-303 -295h-203z" />
<glyph unicode="&#xb5;" horiz-adv-x="1024" />
<glyph unicode="&#xb6;" horiz-adv-x="1269" d="M41 1065q0 369 500 369h620v-1823h-229v1651h-207v-1651h-229v1098q-217 0 -336 95t-119 261z" />
<glyph unicode="&#xb7;" horiz-adv-x="569" d="M115 498q0 72 48 121t122 49t122 -49.5t48 -120.5q0 -72 -48.5 -121t-121.5 -49q-74 0 -122 49t-48 121z" />
<glyph unicode="&#xb8;" horiz-adv-x="454" d="M-8 -395l37 84q127 -37 153 -37q113 0 113 90q0 29 -26.5 49.5t-55.5 20.5q-37 0 -92 -19l-43 41l121 184h108l-86 -127q37 10 84 11q59 0 109 -39q57 -45 57 -119q0 -94 -84 -150q-74 -45 -174 -45q-100 1 -221 56z" />
<glyph unicode="&#xb9;" horiz-adv-x="681" d="M119 1272v172h344v-860h-209v688h-135z" />
<glyph unicode="&#xba;" horiz-adv-x="684" d="M14 1145q0 131 90.5 222t237.5 91t237.5 -91t90.5 -222q0 -133 -90.5 -223.5t-237.5 -90.5t-237.5 90.5t-90.5 223.5zM195 1145q0 -61 43 -103.5t104 -42.5t104 42t43 104q0 61 -43 103t-104 42t-104 -42t-43 -103z" />
<glyph unicode="&#xbb;" horiz-adv-x="1024" d="M96 813h203l260 -315l-254 -316h-205l256 316zM465 813h203l260 -315l-254 -316h-205l256 316z" />
<glyph unicode="&#xbc;" horiz-adv-x="1708" d="M119 1272v172h344v-860h-209v688h-135zM305 -25l832 1483h194l-839 -1483h-187zM899 299q0 53 51 133l277 428h203l-338 -514h223v242l184 276l8 6v-524h82v-172h-82v-174h-192v174h-287q-51 0 -90 35t-39 90z" />
<glyph unicode="&#xbd;" horiz-adv-x="1708" d="M119 1272v172h344v-860h-209v688h-135zM281 -25l831 1483h195l-840 -1483h-186zM991 102q0 53 45 105q8 8 86 80l193 176q109 98 108 155q0 31 -29.5 57.5t-74.5 26.5t-73.5 -26.5t-28.5 -61.5q0 -39 19 -71.5t42 -38.5l-143 -125q-127 70 -127 231q0 113 90 188.5 t225 75.5q131 0 220 -75.5t89 -188.5q0 -82 -39 -143q-29 -47 -106 -113l-215 -182h381v-172h-518q-143 0 -144 102z" />
<glyph unicode="&#xbe;" horiz-adv-x="1708" d="M29 584v176h276q133 0 133 102t-133 103h-180v110l272 201v4h-354v164h395q90 0 142 -39q43 -35 43 -88q0 -72 -70 -129q-63 -45 -127 -92q106 -18 172 -82q70 -70 70 -166q0 -264 -338 -264h-301zM358 -25l832 1483h194l-839 -1483h-187zM899 299q0 53 51 133l277 428 h203l-338 -514h223v242l184 276l8 6v-524h82v-172h-82v-174h-192v174h-287q-51 0 -90 35t-39 90z" />
<glyph unicode="&#xbf;" horiz-adv-x="1024" d="M49 33q0 139 97.5 252t234.5 131v182h283v-414q-182 0 -252 -49q-55 -39 -56 -131q0 -72 47.5 -118t131.5 -46q121 0 176 152l278 -70q-41 -162 -167 -263t-292 -101q-219 0 -350 128t-131 347zM362 854q0 72 48.5 121t121.5 49q74 0 122 -49t48 -121t-48 -121t-122 -49 t-122 49t-48 121z" />
<glyph unicode="&#xc0;" horiz-adv-x="1251" d="M111 0v934q0 213 116 356q139 168 398 168q258 0 397 -168q119 -143 119 -356v-934h-320v516h-311v279h311v192q0 193 -196 193q-195 0 -195 -193v-987h-319zM290 1815h316l190 -295h-202z" />
<glyph unicode="&#xc1;" horiz-adv-x="1251" d="M111 0v934q0 213 116 356q139 168 398 168q258 0 397 -168q119 -143 119 -356v-934h-320v516h-311v279h311v192q0 193 -196 193q-195 0 -195 -193v-987h-319zM456 1520l191 295h315l-303 -295h-203z" />
<glyph unicode="&#xc2;" horiz-adv-x="1251" d="M111 0v934q0 213 116 356q139 168 398 168q258 0 397 -168q119 -143 119 -356v-934h-320v516h-311v279h311v192q0 193 -196 193q-195 0 -195 -193v-987h-319zM264 1520l235 295h256l234 -295h-232l-129 168l-131 -168h-233z" />
<glyph unicode="&#xc3;" horiz-adv-x="1251" d="M111 0v934q0 213 116 356q139 168 398 168q258 0 397 -168q119 -143 119 -356v-934h-320v516h-311v279h311v192q0 193 -196 193q-195 0 -195 -193v-987h-319zM252 1532q14 106 71 176q66 78 164 78q59 0 158.5 -39t126.5 -39q82 0 96 86h133q-45 -250 -227 -250 q-49 0 -155.5 37t-145.5 37q-72 0 -90 -86h-131z" />
<glyph unicode="&#xc4;" horiz-adv-x="1251" d="M111 0v934q0 213 116 356q139 168 398 168q258 0 397 -168q119 -143 119 -356v-934h-320v516h-311v279h311v192q0 193 -196 193q-195 0 -195 -193v-987h-319zM282 1655q0 59 41.5 101t102.5 42t102 -42t41 -101t-41 -101.5t-102 -42.5t-102.5 42t-41.5 102zM684 1655 q0 59 41 101t102 42t102 -42t41 -101t-41 -101.5t-102 -42.5t-102 42t-41 102z" />
<glyph unicode="&#xc5;" horiz-adv-x="1251" d="M111 0v934q0 213 116 356q139 168 398 168q258 0 397 -168q119 -143 119 -356v-934h-320v516h-311v279h311v192q0 193 -196 193q-195 0 -195 -193v-987h-319zM409 1733q0 90 64.5 153.5t152.5 63.5q90 0 153.5 -63.5t63.5 -153.5q0 -88 -63.5 -152.5t-153.5 -64.5 q-88 0 -152.5 64.5t-64.5 152.5zM520 1733q0 -45 31.5 -76t74.5 -31t75 31t32 76t-32 75.5t-75 30.5t-74.5 -30.5t-31.5 -75.5z" />
<glyph unicode="&#xc6;" horiz-adv-x="1820" d="M102 0v934q0 242 146 387q139 137 356 137q131 0 246 -61.5t180 -171.5q174 209 492 209h204v-287h-184q-162 0 -280 -96q-106 -88 -127 -201h591v-266h-591q20 -113 127 -201q119 -96 280 -96h184v-287h-206q-125 0 -250 43q-117 39 -185 98v-141h-274v584h-309v266h309 v158q0 68 -57.5 115.5t-130.5 47.5q-217 0 -217 -233v-938h-304z" />
<glyph unicode="&#xc7;" horiz-adv-x="1024" d="M61 717q0 313 209 522q197 195 467 195h238v-287h-221q-152 0 -262.5 -136.5t-110.5 -293.5q0 -158 108 -291q113 -139 265 -139h221v-287h-238q-270 0 -467 197q-209 207 -209 520zM418 -395l37 84q127 -37 153 -37q113 0 113 90q0 29 -26.5 49.5t-55.5 20.5 q-37 0 -92 -19l-43 41l121 184h108l-86 -127q37 10 84 11q59 0 109 -39q57 -45 57 -119q0 -94 -84 -150q-74 -45 -174 -45q-100 1 -221 56z" />
<glyph unicode="&#xc8;" horiz-adv-x="1024" d="M57 717q0 293 168 491q193 225 537 226h158v-287h-185q-160 0 -260 -96q-86 -82 -106 -201h551v-266h-551q20 -119 106 -201q100 -96 260 -96h185v-287h-158q-344 0 -537 227q-168 197 -168 490zM270 1815h316l190 -295h-202z" />
<glyph unicode="&#xc9;" horiz-adv-x="1024" d="M57 717q0 293 168 491q193 225 537 226h158v-287h-185q-160 0 -260 -96q-86 -82 -106 -201h551v-266h-551q20 -119 106 -201q100 -96 260 -96h185v-287h-158q-344 0 -537 227q-168 197 -168 490zM436 1520l191 295h315l-303 -295h-203z" />
<glyph unicode="&#xca;" horiz-adv-x="1024" d="M57 717q0 293 168 491q193 225 537 226h158v-287h-185q-160 0 -260 -96q-86 -82 -106 -201h551v-266h-551q20 -119 106 -201q100 -96 260 -96h185v-287h-158q-344 0 -537 227q-168 197 -168 490zM244 1520l235 295h256l234 -295h-232l-129 168l-131 -168h-233z" />
<glyph unicode="&#xcb;" horiz-adv-x="1024" d="M57 717q0 293 168 491q193 225 537 226h158v-287h-185q-160 0 -260 -96q-86 -82 -106 -201h551v-266h-551q20 -119 106 -201q100 -96 260 -96h185v-287h-158q-344 0 -537 227q-168 197 -168 490zM262 1655q0 59 41.5 101t102.5 42t102 -42t41 -101t-41 -101.5t-102 -42.5 t-102.5 42t-41.5 102zM664 1655q0 59 41 101t102 42t102 -42t41 -101t-41 -101.5t-102 -42.5t-102 42t-41 102z" />
<glyph unicode="&#xcc;" horiz-adv-x="569" d="M-52 1815h316l190 -295h-202zM133 0v1434h303v-1434h-303z" />
<glyph unicode="&#xcd;" horiz-adv-x="569" d="M114 1520l191 295h315l-303 -295h-203zM133 0v1434h303v-1434h-303z" />
<glyph unicode="&#xce;" horiz-adv-x="569" d="M-78 1520l235 295h256l234 -295h-232l-129 168l-131 -168h-233zM133 0v1434h303v-1434h-303z" />
<glyph unicode="&#xcf;" horiz-adv-x="569" d="M-60 1655q0 59 41.5 101t102.5 42t102 -42t41 -101t-41 -101.5t-102 -42.5t-102.5 42t-41.5 102zM133 0v1434h303v-1434h-303zM342 1655q0 59 41 101t102 42t102 -42t41 -101t-41 -101.5t-102 -42.5t-102 42t-41 102z" />
<glyph unicode="&#xd0;" horiz-adv-x="1366" d="M-12 631v287h135v516h512q236 0 436 -189q227 -215 227 -540q0 -309 -203.5 -507t-496.5 -198h-86v287h86q160 0 281 133q117 127 116 287q0 205 -131 327q-123 113 -311 113h-127v-229h233v-287h-233v-631h-303v631h-135z" />
<glyph unicode="&#xd1;" horiz-adv-x="1366" d="M117 0v1249q0 92 56 150.5t153 58.5q160 0 260 -209l352 -735h6v920h303v-1252q0 -207 -170 -207q-88 0 -147 56q-45 45 -101 159l-405 838l-4 -4v-1024h-303zM322 1532q14 106 71 176q66 78 164 78q59 0 158.5 -39t126.5 -39q82 0 96 86h133q-45 -250 -227 -250 q-49 0 -155.5 37t-145.5 37q-72 0 -90 -86h-131z" />
<glyph unicode="&#xd2;" horiz-adv-x="1593" d="M66 717q0 307 208 524t523 217t526 -219q205 -215 205 -522t-205 -522q-211 -219 -526 -220q-315 0 -523 217.5t-208 524.5zM369 717q0 -186 112 -314q121 -133 316 -133t315 133q113 127 113 314q0 186 -113 313q-120 133 -315 133t-316 -133q-113 -127 -112 -313z M460 1815h316l190 -295h-202z" />
<glyph unicode="&#xd3;" horiz-adv-x="1593" d="M66 717q0 307 208 524t523 217t526 -219q205 -215 205 -522t-205 -522q-211 -219 -526 -220q-315 0 -523 217.5t-208 524.5zM369 717q0 -186 112 -314q121 -133 316 -133t315 133q113 127 113 314q0 186 -113 313q-120 133 -315 133t-316 -133q-113 -127 -112 -313z M626 1520l191 295h315l-303 -295h-203z" />
<glyph unicode="&#xd4;" horiz-adv-x="1593" d="M66 717q0 307 208 524t523 217t526 -219q205 -215 205 -522t-205 -522q-211 -219 -526 -220q-315 0 -523 217.5t-208 524.5zM369 717q0 -186 112 -314q121 -133 316 -133t315 133q113 127 113 314q0 186 -113 313q-120 133 -315 133t-316 -133q-113 -127 -112 -313z M434 1520l235 295h256l234 -295h-232l-129 168l-131 -168h-233z" />
<glyph unicode="&#xd5;" horiz-adv-x="1593" d="M66 717q0 307 208 524t523 217t526 -219q205 -215 205 -522t-205 -522q-211 -219 -526 -220q-315 0 -523 217.5t-208 524.5zM369 717q0 -186 112 -314q121 -133 316 -133t315 133q113 127 113 314q0 186 -113 313q-120 133 -315 133t-316 -133q-113 -127 -112 -313z M422 1532q14 106 71 176q66 78 164 78q59 0 158.5 -39t126.5 -39q82 0 96 86h133q-45 -250 -227 -250q-49 0 -155.5 37t-145.5 37q-72 0 -90 -86h-131z" />
<glyph unicode="&#xd6;" horiz-adv-x="1593" d="M66 717q0 307 208 524t523 217t526 -219q205 -215 205 -522t-205 -522q-211 -219 -526 -220q-315 0 -523 217.5t-208 524.5zM369 717q0 -186 112 -314q121 -133 316 -133t315 133q113 127 113 314q0 186 -113 313q-120 133 -315 133t-316 -133q-113 -127 -112 -313z M452 1655q0 59 41.5 101t102.5 42t102 -42t41 -101t-41 -101.5t-102 -42.5t-102.5 42t-41.5 102zM854 1655q0 59 41 101t102 42t102 -42t41 -101t-41 -101.5t-102 -42.5t-102 42t-41 102z" />
<glyph unicode="&#xd7;" horiz-adv-x="1228" d="M119 164l332 334l-332 333l162 164l331 -333l336 333l162 -164l-336 -333l336 -334l-162 -164l-336 338l-331 -338z" />
<glyph unicode="&#xd8;" horiz-adv-x="1593" d="M-10 -25l243 265q-168 203 -167 477q0 307 207.5 524t523.5 217q248 0 432 -137l127 137h250l-244 -264q166 -205 166 -477q0 -307 -205 -522q-211 -219 -526 -220q-244 0 -432 140l-127 -140h-248zM369 717q-1 -143 69 -254l588 637q-98 63 -229 63q-195 0 -316 -133 q-113 -127 -112 -313zM567 334q98 -63 230 -64q195 0 315 133q113 127 113 314q0 143 -70 254z" />
<glyph unicode="&#xd9;" horiz-adv-x="1251" d="M125 422v1012h303v-926q0 -238 199 -238q197 0 196 238v926h303l2 -1012q0 -182 -122 -307q-137 -139 -379 -140q-242 0 -379 140q-123 125 -123 307zM290 1815h316l190 -295h-202z" />
<glyph unicode="&#xda;" horiz-adv-x="1251" d="M125 422v1012h303v-926q0 -238 199 -238q197 0 196 238v926h303l2 -1012q0 -182 -122 -307q-137 -139 -379 -140q-242 0 -379 140q-123 125 -123 307zM456 1520l191 295h315l-303 -295h-203z" />
<glyph unicode="&#xdb;" horiz-adv-x="1251" d="M125 422v1012h303v-926q0 -238 199 -238q197 0 196 238v926h303l2 -1012q0 -182 -122 -307q-137 -139 -379 -140q-242 0 -379 140q-123 125 -123 307zM264 1520l235 295h256l234 -295h-232l-129 168l-131 -168h-233z" />
<glyph unicode="&#xdc;" horiz-adv-x="1251" d="M125 422v1012h303v-926q0 -238 199 -238q197 0 196 238v926h303l2 -1012q0 -182 -122 -307q-137 -139 -379 -140q-242 0 -379 140q-123 125 -123 307zM282 1655q0 59 41.5 101t102.5 42t102 -42t41 -101t-41 -101.5t-102 -42.5t-102.5 42t-41.5 102zM684 1655 q0 59 41 101t102 42t102 -42t41 -101t-41 -101.5t-102 -42.5t-102 42t-41 102z" />
<glyph unicode="&#xdd;" d="M102 909v525h304v-422q0 -213 163 -213q164 0 164 213v422h303v-525q0 -289 -315 -385v-524h-303v524q-166 51 -248 166q-68 94 -68 219zM411 1520l191 295h315l-303 -295h-203z" />
<glyph unicode="&#xde;" d="M100 0v1434h303v-217q90 37 195 36q217 0 360 -145q137 -141 138 -344q0 -203 -138 -342q-143 -148 -360 -148h-111v287q150 0 218 33q88 45 88 168q0 96 -52.5 150.5t-142.5 54.5t-142.5 -54.5t-52.5 -150.5v-762h-303z" />
<glyph unicode="&#xdf;" horiz-adv-x="1251" d="M14 741v254h129v90q0 158 125 256q117 92 293 93q147 0 258 -84q121 -90 121 -234q0 -170 -123 -229q362 -203 363 -494q0 -199 -146 -303q-127 -90 -332 -90h-194v254h192q205 0 205 156q0 92 -96 186q-43 41 -180 141q-96 70 -97 101q0 31 75 94t75 129q0 70 -40 108.5 t-99 38.5q-125 0 -125 -131v-1077h-275v741h-129z" />
<glyph unicode="&#xe0;" d="M66 487q0 236 141 387q137 145 346 146q221 0 356 -125t135 -322v-573h-262v561q0 90 -63.5 143.5t-169.5 53.5q-94 0 -157.5 -76t-63.5 -184q0 -100 65.5 -170t163.5 -70q68 0 150 31v-273q-102 -25 -166 -24q-221 0 -353 149q-123 139 -122 346zM245 1434h316l190 -295 h-202z" />
<glyph unicode="&#xe1;" d="M66 487q0 236 141 387q137 145 346 146q221 0 356 -125t135 -322v-573h-262v561q0 90 -63.5 143.5t-169.5 53.5q-94 0 -157.5 -76t-63.5 -184q0 -100 65.5 -170t163.5 -70q68 0 150 31v-273q-102 -25 -166 -24q-221 0 -353 149q-123 139 -122 346zM411 1139l191 295h315 l-303 -295h-203z" />
<glyph unicode="&#xe2;" d="M66 487q0 236 141 387q137 145 346 146q221 0 356 -125t135 -322v-573h-262v561q0 90 -63.5 143.5t-169.5 53.5q-94 0 -157.5 -76t-63.5 -184q0 -100 65.5 -170t163.5 -70q68 0 150 31v-273q-102 -25 -166 -24q-221 0 -353 149q-123 139 -122 346zM219 1139l235 295h256 l234 -295h-232l-129 168l-131 -168h-233z" />
<glyph unicode="&#xe3;" d="M66 487q0 236 141 387q137 145 346 146q221 0 356 -125t135 -322v-573h-262v561q0 90 -63.5 143.5t-169.5 53.5q-94 0 -157.5 -76t-63.5 -184q0 -100 65.5 -170t163.5 -70q68 0 150 31v-273q-102 -25 -166 -24q-221 0 -353 149q-123 139 -122 346zM207 1151 q14 106 71 176q66 78 164 78q59 0 158.5 -39t126.5 -39q82 0 96 86h133q-45 -250 -227 -250q-49 0 -155.5 37t-145.5 37q-72 0 -90 -86h-131z" />
<glyph unicode="&#xe4;" d="M66 487q0 236 141 387q137 145 346 146q221 0 356 -125t135 -322v-573h-262v561q0 90 -63.5 143.5t-169.5 53.5q-94 0 -157.5 -76t-63.5 -184q0 -100 65.5 -170t163.5 -70q68 0 150 31v-273q-102 -25 -166 -24q-221 0 -353 149q-123 139 -122 346zM237 1274 q0 59 41.5 101t102.5 42t102 -42t41 -101t-41 -101.5t-102 -42.5t-102.5 42t-41.5 102zM639 1274q0 59 41 101t102 42t102 -42t41 -101t-41 -101.5t-102 -42.5t-102 42t-41 102z" />
<glyph unicode="&#xe5;" d="M66 487q0 236 141 387q137 145 346 146q221 0 356 -125t135 -322v-573h-262v561q0 90 -63.5 143.5t-169.5 53.5q-94 0 -157.5 -76t-63.5 -184q0 -100 65.5 -170t163.5 -70q68 0 150 31v-273q-102 -25 -166 -24q-221 0 -353 149q-123 139 -122 346zM364 1352 q0 90 64.5 153.5t152.5 63.5q90 0 153.5 -63.5t63.5 -153.5q0 -88 -63.5 -152.5t-153.5 -64.5q-88 0 -152.5 64.5t-64.5 152.5zM475 1352q0 -45 31.5 -76t74.5 -31t75 31t32 76t-32 75.5t-75 30.5t-74.5 -30.5t-31.5 -75.5z" />
<glyph unicode="&#xe6;" horiz-adv-x="1820" d="M76 272q0 299 583 433q-109 70 -192 69q-117 1 -246 -67l-106 217q162 96 370 96q213 0 375 -146q162 145 365 146q180 0 307 -105q78 -63 176 -219l-520 -336l-103 168l283 181q-61 49 -154 49q-100 0 -165.5 -76t-65.5 -184q0 -98 68 -176q74 -84 184 -84q100 0 173 57 t89 156l277 -29q-47 -203 -193.5 -325t-355.5 -122q-244 0 -410 197q-147 -197 -399 -197q-147 0 -240 72q-100 80 -100 225zM354 287q0 -43 37 -66.5t82 -23.5q123 0 191 108q57 92 57 225q-367 -87 -367 -243z" />
<glyph unicode="&#xe7;" horiz-adv-x="796" d="M61 498q0 229 131.5 363t360.5 134h182v-262h-174q-109 0 -173 -65.5t-64 -169.5t64.5 -170t172.5 -66h174v-262h-182q-229 0 -360.5 134t-131.5 364zM223 -395l37 84q127 -37 153 -37q113 0 113 90q0 29 -26.5 49.5t-55.5 20.5q-37 0 -92 -19l-43 41l121 184h108 l-86 -127q37 10 84 11q59 0 109 -39q57 -45 57 -119q0 -94 -84 -150q-74 -45 -174 -45q-100 1 -221 56z" />
<glyph unicode="&#xe8;" d="M49 498q0 219 135 368q143 154 369 154q186 0 317 -90q111 -78 166 -205l-506 -379l-127 166l261 201q-39 45 -129 45q-96 0 -160 -76t-64 -184q0 -98 68 -176q74 -84 184 -84q100 0 173 57.5t89 155.5l265 -29q-37 -203 -182.5 -325t-354.5 -122q-225 0 -369 154 q-135 150 -135 369zM221 1434h316l190 -295h-202z" />
<glyph unicode="&#xe9;" d="M49 498q0 219 135 368q143 154 369 154q186 0 317 -90q111 -78 166 -205l-506 -379l-127 166l261 201q-39 45 -129 45q-96 0 -160 -76t-64 -184q0 -98 68 -176q74 -84 184 -84q100 0 173 57.5t89 155.5l265 -29q-37 -203 -182.5 -325t-354.5 -122q-225 0 -369 154 q-135 150 -135 369zM387 1139l191 295h315l-303 -295h-203z" />
<glyph unicode="&#xea;" d="M49 498q0 219 135 368q143 154 369 154q186 0 317 -90q111 -78 166 -205l-506 -379l-127 166l261 201q-39 45 -129 45q-96 0 -160 -76t-64 -184q0 -98 68 -176q74 -84 184 -84q100 0 173 57.5t89 155.5l265 -29q-37 -203 -182.5 -325t-354.5 -122q-225 0 -369 154 q-135 150 -135 369zM195 1139l235 295h256l234 -295h-232l-129 168l-131 -168h-233z" />
<glyph unicode="&#xeb;" d="M49 498q0 219 135 368q143 154 369 154q186 0 317 -90q111 -78 166 -205l-506 -379l-127 166l261 201q-39 45 -129 45q-96 0 -160 -76t-64 -184q0 -98 68 -176q74 -84 184 -84q100 0 173 57.5t89 155.5l265 -29q-37 -203 -182.5 -325t-354.5 -122q-225 0 -369 154 q-135 150 -135 369zM213 1274q0 59 41.5 101t102.5 42t102 -42t41 -101t-41 -101.5t-102 -42.5t-102.5 42t-41.5 102zM615 1274q0 59 41 101t102 42t102 -42t41 -101t-41 -101.5t-102 -42.5t-102 42t-41 102z" />
<glyph unicode="&#xec;" horiz-adv-x="454" d="M-109 1434h316l190 -295h-202zM96 0v995h262v-995h-262z" />
<glyph unicode="&#xed;" horiz-adv-x="454" d="M57 1139l191 295h315l-303 -295h-203zM96 0v995h262v-995h-262z" />
<glyph unicode="&#xee;" horiz-adv-x="454" d="M-135 1139l235 295h256l234 -295h-232l-129 168l-131 -168h-233zM96 0v995h262v-995h-262z" />
<glyph unicode="&#xef;" horiz-adv-x="454" d="M-117 1274q0 59 41.5 101t102.5 42t102 -42t41 -101t-41 -101.5t-102 -42.5t-102.5 42t-41.5 102zM96 0v995h262v-995h-262zM285 1274q0 59 41 101t102 42t102 -42t41 -101t-41 -101.5t-102 -42.5t-102 42t-41 102z" />
<glyph unicode="&#xf0;" d="M66 498q0 217 120 352q143 160 428 154q78 -141 115 -299q-63 53 -160 53q-111 0 -176 -68.5t-65 -191.5t65.5 -191.5t175.5 -68.5q113 0 178.5 82.5t65.5 240.5q0 307 -197 557l-165 -82l-70 131l133 66q-47 43 -84 70l213 131q43 -33 98 -88l181 88l69 -131l-151 -74 q233 -303 233 -668q0 -272 -140 -429t-364 -157q-225 0 -368 154q-135 150 -135 369z" />
<glyph unicode="&#xf1;" horiz-adv-x="1024" d="M100 0v688q0 160 115 248q109 84 297 84t300 -86t112 -246v-688h-262v598q0 160 -150 160t-150 -160v-598h-262zM138 1151q14 106 71 176q66 78 164 78q59 0 158.5 -39t126.5 -39q82 0 96 86h133q-45 -250 -227 -250q-49 0 -155.5 37t-145.5 37q-72 0 -90 -86h-131z" />
<glyph unicode="&#xf2;" d="M66 498q0 219 135 368q143 154 368 154t369 -154q135 -150 135 -368q0 -219 -135 -369q-143 -154 -369 -154q-225 0 -368 154q-135 150 -135 369zM233 1434h316l190 -295h-202zM328 498q0 -123 65.5 -191.5t175.5 -68.5q111 0 176.5 68.5t65.5 191.5t-65.5 191.5 t-176.5 68.5t-176 -68.5t-65 -191.5z" />
<glyph unicode="&#xf3;" d="M66 498q0 219 135 368q143 154 368 154t369 -154q135 -150 135 -368q0 -219 -135 -369q-143 -154 -369 -154q-225 0 -368 154q-135 150 -135 369zM328 498q0 -123 65.5 -191.5t175.5 -68.5q111 0 176.5 68.5t65.5 191.5t-65.5 191.5t-176.5 68.5t-176 -68.5t-65 -191.5z M399 1139l191 295h315l-303 -295h-203z" />
<glyph unicode="&#xf4;" d="M66 498q0 219 135 368q143 154 368 154t369 -154q135 -150 135 -368q0 -219 -135 -369q-143 -154 -369 -154q-225 0 -368 154q-135 150 -135 369zM207 1139l235 295h256l234 -295h-232l-129 168l-131 -168h-233zM328 498q0 -123 65.5 -191.5t175.5 -68.5 q111 0 176.5 68.5t65.5 191.5t-65.5 191.5t-176.5 68.5t-176 -68.5t-65 -191.5z" />
<glyph unicode="&#xf5;" d="M66 498q0 219 135 368q143 154 368 154t369 -154q135 -150 135 -368q0 -219 -135 -369q-143 -154 -369 -154q-225 0 -368 154q-135 150 -135 369zM195 1151q14 106 71 176q66 78 164 78q59 0 158.5 -39t126.5 -39q82 0 96 86h133q-45 -250 -227 -250q-49 0 -155.5 37 t-145.5 37q-72 0 -90 -86h-131zM328 498q0 -123 65.5 -191.5t175.5 -68.5q111 0 176.5 68.5t65.5 191.5t-65.5 191.5t-176.5 68.5t-176 -68.5t-65 -191.5z" />
<glyph unicode="&#xf6;" d="M66 498q0 219 135 368q143 154 368 154t369 -154q135 -150 135 -368q0 -219 -135 -369q-143 -154 -369 -154q-225 0 -368 154q-135 150 -135 369zM225 1274q0 59 41.5 101t102.5 42t102 -42t41 -101t-41 -101.5t-102 -42.5t-102.5 42t-41.5 102zM328 498 q0 -123 65.5 -191.5t175.5 -68.5q111 0 176.5 68.5t65.5 191.5t-65.5 191.5t-176.5 68.5t-176 -68.5t-65 -191.5zM627 1274q0 59 41 101t102 42t102 -42t41 -101t-41 -101.5t-102 -42.5t-102 42t-41 102z" />
<glyph unicode="&#xf7;" horiz-adv-x="1228" d="M119 387v221h991v-221h-991zM442 90q0 72 52.5 123t121.5 51q72 0 123.5 -51t51.5 -123q0 -70 -51.5 -122t-123.5 -52q-70 0 -122 52t-52 122zM442 905q0 72 52.5 123t121.5 51q72 0 123.5 -51t51.5 -123q0 -70 -51.5 -122t-123.5 -52q-70 0 -122 52t-52 122z" />
<glyph unicode="&#xf8;" d="M-2 -45l178 207q-111 139 -110 336q0 219 135 368q143 154 368 154q152 0 262 -70l89 107h223v-8l-185 -211q115 -137 115 -340q0 -219 -135 -369q-143 -154 -369 -154q-156 0 -270 74l-86 -102h-215v8zM328 498q-1 -76 24 -125l305 368q-35 16 -88 17q-111 0 -176 -68.5 t-65 -191.5zM473 256q41 -18 96 -18q111 0 176.5 68.5t65.5 191.5q0 78 -27 131z" />
<glyph unicode="&#xf9;" horiz-adv-x="1024" d="M100 307v688h262v-598q0 -160 150 -159q150 0 150 159v598h262v-688q0 -160 -112 -246t-300 -86t-297 84q-115 88 -115 248zM176 1434h316l190 -295h-202z" />
<glyph unicode="&#xfa;" horiz-adv-x="1024" d="M100 307v688h262v-598q0 -160 150 -159q150 0 150 159v598h262v-688q0 -160 -112 -246t-300 -86t-297 84q-115 88 -115 248zM342 1139l191 295h315l-303 -295h-203z" />
<glyph unicode="&#xfb;" horiz-adv-x="1024" d="M100 307v688h262v-598q0 -160 150 -159q150 0 150 159v598h262v-688q0 -160 -112 -246t-300 -86t-297 84q-115 88 -115 248zM150 1139l235 295h256l234 -295h-232l-129 168l-131 -168h-233z" />
<glyph unicode="&#xfc;" horiz-adv-x="1024" d="M100 307v688h262v-598q0 -160 150 -159q150 0 150 159v598h262v-688q0 -160 -112 -246t-300 -86t-297 84q-115 88 -115 248zM168 1274q0 59 41.5 101t102.5 42t102 -42t41 -101t-41 -101.5t-102 -42.5t-102.5 42t-41.5 102zM570 1274q0 59 41 101t102 42t102 -42t41 -101 t-41 -101.5t-102 -42.5t-102 42t-41 102z" />
<glyph unicode="&#xfd;" horiz-adv-x="1024" d="M96 360v635h262v-581q0 -176 154 -176t154 176v581h262v-635q0 -307 -279 -368v-414h-274v414q-135 29 -209 131q-70 96 -70 237zM342 1139l191 295h315l-303 -295h-203z" />
<glyph unicode="&#xfe;" d="M94 -442v1876h262v-471q102 57 230 57q213 0 350 -151.5t137 -372.5q0 -209 -133 -361q-137 -160 -342 -160q-55 0 -158 29v277q68 -31 142 -31q100 0 164.5 69.5t64.5 178.5t-63.5 178t-157.5 69q-102 0 -168 -69.5t-66 -177.5v-940h-262z" />
<glyph unicode="&#xff;" horiz-adv-x="1024" d="M96 360v635h262v-581q0 -176 154 -176t154 176v581h262v-635q0 -307 -279 -368v-414h-274v414q-135 29 -209 131q-70 96 -70 237zM168 1274q0 59 41.5 101t102.5 42t102 -42t41 -101t-41 -101.5t-102 -42.5t-102.5 42t-41.5 102zM570 1274q0 59 41 101t102 42t102 -42 t41 -101t-41 -101.5t-102 -42.5t-102 42t-41 102z" />
<glyph unicode="&#x152;" horiz-adv-x="2048" d="M37 717q0 309 213 528q207 213 487 213q322 0 549 -278q119 143 268 202q127 51 310 52h123v-287h-185q-160 0 -260 -96q-86 -82 -108 -201h553v-266h-553q23 -119 108 -201q100 -96 260 -96h185v-287h-123q-182 0 -310 51q-150 59 -268 203q-227 -279 -549 -279 q-281 0 -487 215q-213 217 -213 527zM340 717q0 -190 117.5 -318.5t285.5 -128.5t286 128t118 319q0 190 -118 318t-286 128t-285.5 -128t-117.5 -318z" />
<glyph unicode="&#x153;" horiz-adv-x="1933" d="M59 498q0 219 136 368q143 154 368 154q233 0 379 -156q96 88 181 122t208 34q293 0 486 -324l-512 -327l-119 163l287 185q-53 53 -160 53q-94 0 -162 -81t-68 -189q0 -98 72 -176q76 -86 186 -86q100 0 173.5 57.5t89.5 153.5l270 -25q-41 -203 -187.5 -326 t-355.5 -123q-244 0 -383 160q-178 -160 -385 -160q-225 0 -368 154q-135 150 -136 369zM322 498q0 -123 65.5 -191.5t175.5 -68.5q111 0 176.5 68.5t65.5 191.5t-65.5 191.5t-176.5 68.5t-176 -68.5t-65 -191.5z" />
<glyph unicode="&#x178;" d="M102 909v525h304v-422q0 -213 163 -213q164 0 164 213v422h303v-525q0 -289 -315 -385v-524h-303v524q-166 51 -248 166q-68 94 -68 219zM237 1655q0 59 41.5 101t102.5 42t102 -42t41 -101t-41 -101.5t-102 -42.5t-102.5 42t-41.5 102zM639 1655q0 59 41 101t102 42 t102 -42t41 -101t-41 -101.5t-102 -42.5t-102 42t-41 102z" />
<glyph unicode="&#x2c6;" horiz-adv-x="454" d="M-135 1139l235 295h256l234 -295h-232l-129 168l-131 -168h-233z" />
<glyph unicode="&#x2dc;" horiz-adv-x="454" d="M-147 1151q14 106 71 176q66 78 164 78q59 0 158.5 -39t126.5 -39q82 0 96 86h133q-45 -250 -227 -250q-49 0 -155.5 37t-145.5 37q-72 0 -90 -86h-131z" />
<glyph unicode="&#x2000;" horiz-adv-x="975" />
<glyph unicode="&#x2001;" horiz-adv-x="1950" />
<glyph unicode="&#x2002;" horiz-adv-x="975" />
<glyph unicode="&#x2003;" horiz-adv-x="1950" />
<glyph unicode="&#x2004;" horiz-adv-x="650" />
<glyph unicode="&#x2005;" horiz-adv-x="487" />
<glyph unicode="&#x2006;" horiz-adv-x="325" />
<glyph unicode="&#x2007;" horiz-adv-x="325" />
<glyph unicode="&#x2008;" horiz-adv-x="243" />
<glyph unicode="&#x2009;" horiz-adv-x="390" />
<glyph unicode="&#x200a;" horiz-adv-x="108" />
<glyph unicode="&#x2010;" horiz-adv-x="681" d="M104 383v229h474v-229h-474z" />
<glyph unicode="&#x2011;" horiz-adv-x="681" d="M104 383v229h474v-229h-474z" />
<glyph unicode="&#x2012;" horiz-adv-x="681" d="M104 383v229h474v-229h-474z" />
<glyph unicode="&#x2013;" horiz-adv-x="1024" d="M0 410v176h1024v-176h-1024z" />
<glyph unicode="&#x2014;" horiz-adv-x="2048" d="M0 410v176h2048v-176h-2048z" />
<glyph unicode="&#x2018;" horiz-adv-x="454" d="M76 1434h264l55 -467h-202z" />
<glyph unicode="&#x2019;" horiz-adv-x="454" d="M59 967l56 467h264l-117 -467h-203z" />
<glyph unicode="&#x201a;" horiz-adv-x="454" d="M59 -205l56 467h264l-117 -467h-203z" />
<glyph unicode="&#x201c;" horiz-adv-x="796" d="M70 1434h264l55 -467h-203zM449 1434h264l55 -467h-203z" />
<glyph unicode="&#x201d;" horiz-adv-x="796" d="M29 967l55 467h264l-117 -467h-202zM408 967l55 467h264l-117 -467h-202z" />
<glyph unicode="&#x201e;" horiz-adv-x="796" d="M29 -205l55 467h264l-117 -467h-202zM408 -205l55 467h264l-117 -467h-202z" />
<glyph unicode="&#x2022;" horiz-adv-x="1024" d="M154 719q0 150 104 253t256 103t254 -102.5t102 -253.5q0 -152 -103 -256.5t-253 -104.5t-255 105.5t-105 255.5z" />
<glyph unicode="&#x2026;" horiz-adv-x="2048" d="M172 162q0 72 48 121t122 49t122 -49.5t48 -120.5q0 -72 -48 -121t-122 -49t-122 49t-48 121zM854 162q0 72 48 121t122 49t122 -49.5t48 -120.5q0 -72 -48 -121t-122 -49t-122 49t-48 121zM1536 162q0 72 48 121t122 49t122 -49.5t48 -120.5q0 -72 -48 -121t-122 -49 t-122 49t-48 121z" />
<glyph unicode="&#x202f;" horiz-adv-x="390" />
<glyph unicode="&#x2039;" horiz-adv-x="681" d="M119 498l254 315h205l-256 -315l260 -316h-203z" />
<glyph unicode="&#x203a;" horiz-adv-x="681" d="M119 813h203l260 -315l-254 -316h-205l256 316z" />
<glyph unicode="&#x205f;" horiz-adv-x="487" />
<glyph unicode="&#x2122;" horiz-adv-x="2048" d="M57 1257v177h699v-177h-236v-684h-229v684h-234zM915 573v861h314l192 -512l191 512h313v-861h-217v594h-4l-201 -594h-166l-200 594h-4v-594h-218z" />
<glyph unicode="&#xe000;" horiz-adv-x="993" d="M0 0v993h993v-993h-993z" />
</font>
</defs>
</svg>
