<?xml version="1.0" encoding="utf-8"?>
<!-- Generator: Adobe Illustrator 15.0.0, SVG Export Plug-In . SVG Version: 6.00 Build 0)  -->
<!DOCTYPE svg PUBLIC "-//W3C//DTD SVG 1.1//EN" "http://www.w3.org/Graphics/SVG/1.1/DTD/svg11.dtd">
<svg version="1.1" id="Layer_1" xmlns="http://www.w3.org/2000/svg" xmlns:xlink="http://www.w3.org/1999/xlink" x="0px" y="0px"
	viewBox="240 200 160 80" enable-background="new 0 0 640 480" xml:space="preserve">
	<!-- width="320px" height="480px" -->
<g>
	<path fill="#ED8803" d="M366.986,183.332c-3.115-2.583-6.447-4.914-9.963-6.965l0,0c0,0-15.263,6.951-38.795,6.951
		c-23.533,0-36.423-6.533-36.423-6.533c-3.522,2.108-6.854,4.501-9.964,7.146c0,0,14.168,7.138,46.387,7.138
		C350.446,191.069,366.986,183.332,366.986,183.332z M318.229,178.426c18.827,0,31.32-5.859,31.32-5.859s0,0,0.001,0
		c-9.113-3.934-19.187-6.234-29.781-6.234c-11.013,0-21.462,2.3-30.854,6.727h0C288.915,173.059,299.401,178.426,318.229,178.426z
		 M374.466,190.464L374.466,190.464c0,0-21.09,6.015-56.237,6.015s-53.439-5.703-53.439-5.703
		c-11.839,13.123-19.048,30.503-19.048,49.568c0,7.288,1.059,14.329,3.021,20.981c0.001-0.001,16.871-4.905,42.758-7.338
		l-1.998-23.306l30.124-14.076l30.124,14.076l-1.996,23.284c26.024,2.424,43,7.359,43.001,7.36
		c1.963-6.652,3.021-13.693,3.021-20.981C393.796,221.128,386.473,203.623,374.466,190.464z"/>
	<path fill="#2CBCDD" d="M314.327,252.705l-1.019-18.567c-7.247,0.471-13.373,1.529-13.373,1.529l1.503,17.552
		C305.567,252.966,309.872,252.787,314.327,252.705z M319.769,252.654c6.319,0,12.368,0.205,18.085,0.55l1.503-17.537
		c0,0-9.629-1.763-19.343-1.763c-1.591,0-3.2,0.046-4.777,0.124l0.341,18.657C316.961,252.665,318.357,252.654,319.769,252.654z
		 M340.178,287.024c-34.221,8.371-11.115-13.701-39.139-11.138c-25.533,2.337-40.683,8.613-40.683,8.613
		c2.757,3.704,5.852,7.142,9.24,10.268c10.731-5.936,26.752-13.255,39.23-12.363c13.422,0.958-5.819,16.54,17.459,11.435
		c17.476-3.833,31.997-0.973,41.81,2.578c4.659-4.021,8.813-8.61,12.35-13.664C380.444,282.753,363.956,281.208,340.178,287.024z
		 M311.803,299.534c-5.963-3.4,8.961-17.658-14.266-11.884c-15.164,3.771-22.672,11.558-22.672,11.558h0
		c12.454,9.591,28.016,15.171,44.903,15.171c15.931,0,30.683-5.038,42.759-13.6c0,0-10.863-5.426-20.75-5.957
		C327.292,294.044,318.85,303.553,311.803,299.534z"/>
</g>
</svg>
