<?xml version="1.0" encoding="utf-8"?>
<!-- Generator: Adobe Illustrator 15.0.0, SVG Export Plug-In . SVG Version: 6.00 Build 0)  -->
<!DOCTYPE svg PUBLIC "-//W3C//DTD SVG 1.1//EN" "http://www.w3.org/Graphics/SVG/1.1/DTD/svg11.dtd">
<svg version="1.1" id="Layer_1" xmlns="http://www.w3.org/2000/svg" xmlns:xlink="http://www.w3.org/1999/xlink" x="0px" y="0px"
	  viewBox="240 200 160 80" enable-background="new 0 0 640 480" xml:space="preserve">
	  <!--viewBox="240 200 160 80"-->
<g>
	<path fill="#FFFFFF" d="M367.118,183.238c-3.104-2.574-6.424-4.896-9.927-6.94v0c0,0-15.208,6.926-38.655,6.926
		c-23.448,0-36.291-6.509-36.291-6.509c-3.51,2.101-6.829,4.485-9.928,7.121c0,0,14.117,7.112,46.219,7.112
		C350.638,190.947,367.118,183.238,367.118,183.238z M318.536,178.697c18.759,0,31.208-5.838,31.208-5.838l0,0
		c-9.08-3.92-19.116-6.212-29.673-6.212c-10.973,0-21.384,2.292-30.743,6.702h0C289.328,173.349,299.777,178.697,318.536,178.697z
		 M374.571,190.345L374.571,190.345c0,0-21.015,5.993-56.035,5.993s-53.246-5.682-53.246-5.682
		c-11.796,13.075-18.979,30.393-18.979,49.39c0,7.262,1.055,14.277,3.01,20.906c0.001-0.001,16.81-4.889,42.604-7.312l-1.991-23.223
		l30.015-14.025l30.015,14.025l-1.988,23.2c25.93,2.415,42.845,7.333,42.846,7.334c1.956-6.629,3.011-13.644,3.011-20.906
		C393.831,220.898,386.534,203.456,374.571,190.345z"/>
	<path fill="#FFFFFF" d="M314.649,252.36l-1.015-18.5c-7.221,0.469-13.325,1.523-13.325,1.523l1.499,17.489
		C305.921,252.62,310.21,252.442,314.649,252.36z M320.071,252.31c6.296,0,12.324,0.204,18.02,0.549l1.497-17.474
		c0,0-9.594-1.756-19.272-1.756c-1.586,0-3.188,0.046-4.76,0.123l0.34,18.59C317.273,252.321,318.665,252.31,320.071,252.31z
		 M340.405,286.557c-34.096,8.341-11.074-13.652-38.997-11.098c-25.441,2.328-40.536,8.582-40.536,8.582
		c2.747,3.691,5.831,7.116,9.207,10.23c10.692-5.914,26.655-13.207,39.088-12.319c13.374,0.955-5.798,16.48,17.396,11.394
		c17.413-3.819,31.882-0.969,41.658,2.569c4.643-4.006,8.781-8.58,12.307-13.615C380.528,282.3,364.1,280.761,340.405,286.557z
		 M312.134,299.021c-5.941-3.388,8.929-17.421-14.214-11.667c-15.109,3.757-22.59,11.689-22.59,11.689c0,0,0,0,0,0
		c12.409,9.556,27.915,14.942,44.741,14.942c15.873,0,30.572-5.106,42.604-13.638c0,0-10.824-5.449-20.675-5.979
		C327.567,293.594,319.155,303.024,312.134,299.021z"/>
</g>
</svg>
