<?xml version="1.0" encoding="UTF-8"?>
<!DOCTYPE svg PUBLIC "-//W3C//DTD SVG 1.1//EN" "http://www.w3.org/Graphics/SVG/1.1/DTD/svg11.dtd">
<!-- Creator: Facu VeRga -->
<svg xmlns="http://www.w3.org/2000/svg" xml:space="preserve" width="100%" height="100%" style="shape-rendering:geometricPrecision; text-rendering:geometricPrecision; image-rendering:optimizeQuality; fill-rule:evenodd; clip-rule:evenodd"
viewBox="0 0 4.23332 4.23332"
<!-- viewBox="0 0 4.23332 4.23332"-->
 xmlns:xlink="http://www.w3.org/1999/xlink"
 version="1.1"
 enable-background="new 0 0 640 480">
 <defs>
  <style type="text/css">
   <![CDATA[
    .fil1 {fill:#2CBCDD}
    .fil0 {fill:#ED8803}
   ]]>
  </style>
 </defs>
 <g id="Layer_x0020_1">
  <metadata id="CorelCorpID_0Corel-Layer"/>
  <g id="_260797064">
   <path id="_260796440" class="fil0" d="M3.46672 0.48607c-0.08907,-0.07386 -0.18434,-0.14052 -0.28487,-0.19916l0 0c0,0 -0.43641,0.19876 -1.10926,0.19876 -0.67287,0 -1.04144,-0.18681 -1.04144,-0.18681 -0.10071,0.06028 -0.19598,0.12871 -0.2849,0.20434 0,0 0.4051,0.20411 1.32634,0.20411 0.9212,0 1.39413,-0.22124 1.39413,-0.22124zm-1.39411 -0.14029c0.53832,0 0.89554,-0.16754 0.89554,-0.16754 0,0 0,0 3e-005,0 -0.26056,-0.11249 -0.54862,-0.17825 -0.85153,-0.17825 -0.3149,0 -0.61366,0.06576 -0.88221,0.19236l0 0c0,-4e-005 0.29982,0.15343 0.83817,0.15343zm1.60799 0.34423l0 0c0,0 -0.60303,0.172 -1.60799,0.172 -1.00495,0 -1.52798,-0.16308 -1.52798,-0.16308 -0.33851,0.37525 -0.54464,0.87223 -0.54464,1.41738 0,0.2084 0.03028,0.40974 0.08638,0.59995 3e-005,-4e-005 0.48239,-0.14026 1.22258,-0.20983l-0.05712 -0.66643 0.86133 -0.4025 0.86133 0.4025 -0.05707 0.6658c0.7441,0.06932 1.2295,0.21043 1.22952,0.21046 0.05613,-0.19021 0.08638,-0.39155 0.08638,-0.59995 -2e-005,-0.54948 -0.20941,-1.05002 -0.55272,-1.4263z"/>
   <path id="_260796416" class="fil1" d="M1.96104 2.46976l-0.02913 -0.53091c-0.20721,0.01346 -0.38238,0.04371 -0.38238,0.04371l0.04298 0.5019c0.11806,-0.00723 0.24115,-0.01235 0.36853,-0.0147zm0.15561 -0.00146c0.18068,0 0.35364,0.00586 0.5171,0.01573l0.04298 -0.50147c0,0 -0.27532,-0.05041 -0.55307,-0.05041 -0.04549,0 -0.0915,0.00131 -0.13658,0.00354l0.00974 0.53349c0.03953,-0.00056 0.07946,-0.00088 0.11983,-0.00088zm0.58355 0.98281c-0.97847,0.23936 -0.3178,-0.39178 -1.11909,-0.31849 -0.73006,0.06682 -1.16324,0.24629 -1.16324,0.24629 0.07883,0.10592 0.16732,0.20423 0.2642,0.29361 0.30683,-0.16974 0.76492,-0.37903 1.1217,-0.35351 0.38377,0.02739 -0.16638,0.47295 0.49921,0.32698 0.49969,-0.1096 0.91489,-0.02782 1.19547,0.07371 0.13321,-0.11498 0.25199,-0.2462 0.35312,-0.39072 -4e-005,-1e-005 -0.47149,-0.04418 -1.15137,0.12213zm-0.81133 0.35771c-0.17049,-0.09722 0.25622,-0.50492 -0.4079,-0.33982 -0.43358,0.10783 -0.64825,0.33051 -0.64825,0.33051l-1e-005 0c0.35609,0.27424 0.80106,0.4338 1.28391,0.4338 0.45551,0 0.87731,-0.14406 1.2226,-0.38888 0,0 -0.31061,-0.15515 -0.5933,-0.17033 -0.41417,-0.02227 -0.65555,0.24965 -0.85705,0.13472z"/>
  </g>
 </g>
</svg>
