<?xml version="1.0" encoding="utf-8"?>
<!-- Generator: Adobe Illustrator 15.0.0, SVG Export Plug-In . SVG Version: 6.00 Build 0)  -->
<!DOCTYPE svg PUBLIC "-//W3C//DTD SVG 1.1//EN" "http://www.w3.org/Graphics/SVG/1.1/DTD/svg11.dtd">
<svg version="1.1" id="Layer_1" xmlns="http://www.w3.org/2000/svg" xmlns:xlink="http://www.w3.org/1999/xlink" x="0px" y="0px"
	 width="640px" height="480px" viewBox="0 0 640 480" enable-background="new 0 0 640 480" xml:space="preserve">
<g>
	<g>
		<path fill="#FFFFFF" d="M234.982,209.156c-1.695-1.405-3.507-2.673-5.419-3.789v0c0,0-8.302,3.781-21.103,3.781
			s-19.812-3.553-19.812-3.553c-1.916,1.146-3.728,2.448-5.42,3.887c0,0,7.707,3.882,25.232,3.882S234.982,209.156,234.982,209.156z
			 M208.46,206.677c10.241,0,17.037-3.187,17.037-3.187s0,0,0,0c-4.957-2.14-10.436-3.392-16.199-3.392
			c-5.99,0-11.674,1.251-16.783,3.659h0C192.516,203.757,198.22,206.677,208.46,206.677z M239.051,213.036L239.051,213.036
			c0,0-11.472,3.271-30.59,3.271s-29.068-3.102-29.068-3.102c-6.439,7.138-10.361,16.592-10.361,26.962
			c0,3.965,0.576,7.794,1.643,11.413c0.001-0.001,9.177-2.669,23.258-3.991l-1.086-12.678l16.385-7.657l16.385,7.657l-1.085,12.665
			c14.156,1.318,23.39,4.003,23.391,4.004c1.067-3.619,1.643-7.448,1.643-11.413C249.565,229.715,245.582,220.193,239.051,213.036z"
			/>
		<path fill="#FFFFFF" d="M206.338,246.892l-0.554-10.1c-3.942,0.256-7.274,0.832-7.274,0.832l0.818,9.547
			C201.574,247.033,203.916,246.936,206.338,246.892z M209.298,246.863c3.437,0,6.728,0.111,9.837,0.3l0.817-9.54
			c0,0-5.238-0.958-10.521-0.958c-0.865,0-1.74,0.025-2.599,0.067l0.186,10.148C207.771,246.87,208.531,246.863,209.298,246.863z
			 M220.399,265.56c-18.614,4.553-6.046-7.453-21.289-6.059c-13.889,1.271-22.129,4.686-22.129,4.686
			c1.5,2.015,3.183,3.884,5.026,5.584c5.837-3.229,14.551-7.21,21.339-6.725c7.301,0.521-3.166,8.997,9.497,6.22
			c9.506-2.085,17.405-0.529,22.742,1.402c2.534-2.187,4.793-4.684,6.718-7.433C242.303,263.235,233.334,262.396,220.399,265.56z
			 M204.965,272.363c-3.243-1.85,4.875-9.51-7.759-6.369c-8.249,2.052-12.333,6.382-12.332,6.382h0
			c6.774,5.217,15.239,8.157,24.425,8.157c8.666,0,16.689-2.788,23.258-7.445c0,0-5.909-2.975-11.287-3.264
			C213.391,269.401,208.798,274.55,204.965,272.363z"/>
	</g>
	<g>
		<g>
			<path fill="#FFFFFF" d="M333.328,253.561c0-3.344,2.866-10.568,2.866-15.404c0-4.776-2.807-6.747-6.628-6.747
				c-1.851,0-4.479,0.482-6.985,3.349l0.656-3.101h-8.598l-5.167,24.369c-1.162-0.158-1.71-0.763-1.71-2.165
				c0-0.537,0.06-1.131,0.239-1.907l4.299-20.297h-8.598l-4.06,19.162c-0.896,2.984-2.448,5.251-4.777,5.251
				c-1.313,0-1.791-1.075-1.791-2.448c0-0.538,0.06-1.071,0.179-1.668l4.299-20.297h-8.598l-4.06,19.162
				c-0.299,1.433-0.478,2.744-0.478,3.878c0,5.016,2.807,7.164,6.389,7.164c2.508,0,5.852-0.777,8.837-5.673
				c0.358,3.702,2.508,5.664,5.911,5.664c0.807,0,1.749-0.1,2.76-0.367h8.596l4.06-19.157c0.896-2.986,2.508-5.489,4.658-5.489
				c1.433,0,2.149,1.077,2.149,3.047c0,3.821-2.688,11.166-2.688,15.227c0,3.403,1.434,6.747,6.031,6.747
				c3.164,0,6.03-1.851,6.567-6.149c-0.358,0.239-0.955,0.358-1.971,0.358C333.925,256.068,333.328,255.054,333.328,253.561z
				 M270.267,224.961c0-3.583,2.209-5.433,5.493-5.433c3.284,0,4.418,1.911,4.418,4c0,1.97-1.075,4.18-2.687,5.135
				c0.776,0.896,1.672,1.254,2.747,1.254c2.985,0,4.896-2.567,4.896-6.03c0-6.568-6.807-7.165-9.613-7.165
				c-7.702,0-13.792,4.478-13.792,10.688c0,8.777,12.24,12.419,12.24,22.629c0,5.016-2.925,7.941-6.926,7.941
				c-3.821,0-5.732-2.747-5.732-5.732c0-4.12,3.762-5.612,6.986-5.612c-0.179-3.104-3.165-3.94-5.254-3.94
				c-4.179,0-8.777,3.344-8.777,9.792c0,7.284,5.851,10.27,12.658,10.27c8.658,0,16.778-4.896,16.778-14.927
				C283.701,234.932,270.267,233.738,270.267,224.961z M368.734,216.81l-3.821,17.79h-8.777l3.821-17.776
				c-0.776-0.06-1.553-0.111-2.389-0.111c-9.971,0-20.957,7.587-20.957,15.528c0,4.299,2.27,5.793,6.389,5.793
				c-0.06-0.537-0.836-1.014-0.836-4.059c0-6.329,3.105-10.874,8.359-13.083l-8.658,40.593h8.599l4.776-22.471h8.776l-4.776,22.471
				h8.598l9.494-44.675H368.734z M457.211,251.232c0-0.537,0.06-1.194,0.119-1.791c7.165-0.418,13.732-5.673,13.732-12.599
				c0-2.985-1.253-5.732-6.567-5.732c-12.24,0-16.121,14.389-16.121,21.255c0,0.13,0.004,0.255,0.007,0.382
				c-0.541,0.358-1.105,0.712-1.678,1.052c0.179-0.717,0.239-1.434,0.239-2.27c0-3.94-0.598-6.269-1.314-21.733l-8.836,1.194
				c-1.852,5.852-4.001,11.763-7.344,17.674c-1.612,0.776-3.165,2.806-3.165,5.553c0,0.185,0.009,0.371,0.022,0.558
				c-0.769,0.811-1.688,1.293-2.762,1.293c-1.671,0-2.447-0.537-2.447-2.209c0-0.537,0.06-1.13,0.238-1.906l4.299-20.296h-8.598
				l-4.06,19.162c-0.896,2.984-2.448,5.251-4.776,5.251c-1.314,0-1.792-1.075-1.792-2.448c0-0.538,0.06-1.071,0.18-1.668
				l4.299-20.297h-8.599l-1.836,8.664c-1.001,0.293-1.966,0.464-2.82,0.464c-0.18,0-0.418-0.001-0.657-0.121
				c0-6.269-2.508-9.554-7.643-9.554c-12.3,0-16.359,14.329-16.359,21.196c0,6.806,4,9.434,9.554,9.434
				c7.344,0,13.314-6.927,14.27-17.973c1.056-0.173,2.086-0.41,3.074-0.704l-1.642,7.75c-0.299,1.433-0.478,2.746-0.478,3.881
				c0,5.016,2.807,7.165,6.389,7.165c2.508,0,5.852-0.776,8.837-5.673c0.358,3.702,2.507,5.673,5.91,5.673
				c2.198,0,5.395-0.611,8.284-4.082c1.222,2.283,3.746,4.082,7.83,4.082c3.044,0,6.866-0.956,9.373-3.583
				c1.334-0.782,2.793-1.72,4.298-2.887c0.98,4.555,4.323,6.47,8.957,6.47c4.776,0,9.075-2.03,10.329-8.837
				c-1.91,1.672-4.776,3.164-7.045,3.164C458.823,256.188,457.211,254.994,457.211,251.232z M464.973,234.275
				c1.135,0,1.493,0.955,1.493,2.448c0,5.015-4.061,9.613-8.718,9.852C459.002,240.903,461.987,234.275,464.973,234.275z
				 M391.84,243.948c-0.955,7.045-4,12.419-6.926,12.419c-2.269,0-3.045-0.896-3.045-4.837c0-5.851,3.701-16.777,7.94-16.777
				c1.553,0,2.15,0.956,2.27,3.463c-1.075,0.478-1.852,1.553-1.852,3.225C390.228,242.635,390.586,243.649,391.84,243.948z
				 M433.09,257.144c-2.241,0-3.309-1.001-3.574-3.037c0.111-0.224,0.221-0.454,0.329-0.69c0.348,0.24,0.809,0.324,1.215,0.324
				c1.553,0,2.628-1.493,2.628-2.926c0-1.016-0.598-1.731-1.374-2.09c1.971-3.821,3.643-7.404,4.836-11.285
				c0.598,9.195,1.135,11.045,1.135,14.151C438.284,255.77,435.717,257.144,433.09,257.144z"/>
		</g>
	</g>
</g>
</svg>
