<?xml version="1.0" encoding="utf-8"?>
<!-- Generator: Adobe Illustrator 15.0.0, SVG Export Plug-In . SVG Version: 6.00 Build 0)  -->
<!DOCTYPE svg PUBLIC "-//W3C//DTD SVG 1.1//EN" "http://www.w3.org/Graphics/SVG/1.1/DTD/svg11.dtd">
<svg version="1.1" id="Layer_1" xmlns="http://www.w3.org/2000/svg" xmlns:xlink="http://www.w3.org/1999/xlink" x="0px" y="0px"
	 viewBox="0 0 640 480" enable-background="new 0 0 640 480" xml:space="preserve">
<g>
	<g>
		<path fill="#ED8803" d="M219.813,205.691c-1.894-1.57-3.919-2.988-6.056-4.234v0c0,0-9.278,4.225-23.583,4.225
			s-22.141-3.971-22.141-3.971c-2.141,1.281-4.166,2.736-6.057,4.344c0,0,8.613,4.339,28.198,4.339S219.813,205.691,219.813,205.691
			z M190.173,202.709c11.445,0,19.04-3.562,19.04-3.562l0,0c-5.54-2.392-11.663-3.79-18.103-3.79
			c-6.694,0-13.047,1.398-18.756,4.089l0,0C172.353,199.446,178.728,202.709,190.173,202.709z M224.359,210.027L224.359,210.027
			c0,0-12.821,3.657-34.187,3.657s-32.485-3.466-32.485-3.466c-7.197,7.977-11.579,18.542-11.579,30.132
			c0,4.43,0.644,8.71,1.836,12.753c0,0,10.255-2.981,25.992-4.46l-1.214-14.167l18.312-8.557l18.312,8.557l-1.213,14.154
			c15.82,1.474,26.14,4.474,26.14,4.474c1.193-4.043,1.836-8.323,1.836-12.753C236.109,228.667,231.658,218.026,224.359,210.027z"/>
		<path fill="#2CBCDD" d="M187.801,247.862l-0.62-11.287c-4.405,0.286-8.129,0.93-8.129,0.93l0.914,10.669
			C182.477,248.021,185.094,247.912,187.801,247.862z M191.109,247.832c3.841,0,7.519,0.124,10.994,0.334l0.913-10.661
			c0,0-5.853-1.072-11.758-1.072c-0.967,0-1.945,0.028-2.904,0.075l0.208,11.342C189.403,247.839,190.251,247.832,191.109,247.832z
			 M203.515,268.726c-20.802,5.088-6.756-8.329-23.792-6.771c-15.521,1.421-24.73,5.236-24.73,5.236
			c1.676,2.252,3.558,4.342,5.617,6.241c6.523-3.607,16.262-8.057,23.847-7.516c8.16,0.583-3.538,10.056,10.613,6.951
			c10.623-2.33,19.451-0.591,25.416,1.567c2.832-2.443,5.357-5.234,7.508-8.307C227.994,266.128,217.97,265.189,203.515,268.726z
			 M186.267,276.329c-3.625-2.066,5.447-10.734-8.672-7.224c-9.218,2.292-13.783,7.025-13.782,7.025c0,0,0,0,0,0
			c7.571,5.83,17.031,9.223,27.297,9.223c9.684,0,18.652-3.063,25.992-8.268c0,0-6.604-3.298-12.613-3.62
			C195.683,272.992,190.55,278.771,186.267,276.329z"/>
	</g>
	<g>
		<g>
			<path fill="#333333" d="M259.245,223.354c0-4.003,2.469-6.072,6.139-6.072s4.938,2.135,4.938,4.471
				c0,2.202-1.201,4.671-3.003,5.738c0.868,1.001,1.869,1.401,3.069,1.401c3.336,0,5.472-2.87,5.472-6.74
				c0-7.339-7.606-8.007-10.743-8.007c-8.608,0-15.414,5.004-15.414,11.944c0,9.809,13.679,13.879,13.679,25.289
				c0,5.605-3.27,8.875-7.74,8.875c-4.27,0-6.406-3.069-6.406-6.405c0-4.604,4.204-6.272,7.807-6.272
				c-0.2-3.47-3.536-4.404-5.872-4.404c-4.671,0-9.809,3.736-9.809,10.943c0,8.14,6.539,11.477,14.146,11.477
				c9.675,0,18.75-5.471,18.75-16.682C274.258,234.497,259.245,233.163,259.245,223.354z M329.72,255.316
				c0-3.737,3.203-11.811,3.203-17.216c0-5.338-3.136-7.54-7.406-7.54c-2.069,0-5.005,0.54-7.808,3.742l0.734-3.464h-9.608
				l-5.775,27.234c-1.298-0.178-1.911-0.853-1.911-2.42c0-0.601,0.067-1.264,0.267-2.131l4.804-22.684h-9.608l-4.538,21.414
				c-1.001,3.336-2.736,5.869-5.338,5.869c-1.468,0-2.002-1.202-2.002-2.736c0-0.601,0.067-1.196,0.2-1.864l4.804-22.683h-9.608
				l-4.538,21.414c-0.333,1.602-0.534,3.066-0.534,4.334c0,5.606,3.136,8.007,7.14,8.007c2.803,0,6.539-0.869,9.875-6.34
				c0.4,4.137,2.803,6.33,6.606,6.33c0.902,0,1.954-0.111,3.084-0.41h9.606l4.537-21.41c1.001-3.336,2.803-6.135,5.205-6.135
				c1.601,0,2.402,1.204,2.402,3.406c0,4.27-3.003,12.478-3.003,17.016c0,3.804,1.602,7.54,6.739,7.54
				c3.536,0,6.739-2.067,7.34-6.872c-0.4,0.268-1.067,0.4-2.202,0.4C330.387,258.118,329.72,256.984,329.72,255.316z
				 M369.288,214.245l-4.27,19.881h-9.81l4.271-19.866c-0.867-0.067-1.735-0.124-2.669-0.124c-11.144,0-23.421,8.479-23.421,17.353
				c0,4.805,2.535,6.475,7.14,6.475c-0.067-0.601-0.935-1.133-0.935-4.536c0-7.073,3.471-12.152,9.342-14.622l-9.675,45.366h9.608
				l5.338-25.113h9.809l-5.338,25.113h9.609l10.609-49.928H369.288z M468.167,252.714c0-0.601,0.066-1.335,0.133-2.002
				c8.008-0.467,15.347-6.339,15.347-14.079c0-3.336-1.4-6.406-7.339-6.406c-13.679,0-18.017,16.082-18.017,23.754
				c0,0.145,0.005,0.284,0.008,0.427c-0.604,0.4-1.235,0.796-1.875,1.175c0.2-0.801,0.267-1.602,0.267-2.536
				c0-4.403-0.667-7.006-1.469-24.288l-9.875,1.334c-2.068,6.54-4.47,13.146-8.207,19.75c-1.802,0.868-3.537,3.137-3.537,6.207
				c0,0.206,0.011,0.415,0.025,0.623c-0.858,0.905-1.887,1.444-3.085,1.444c-1.869,0-2.736-0.6-2.736-2.468
				c0-0.602,0.066-1.263,0.267-2.131l4.805-22.682h-9.609l-4.537,21.414c-1,3.336-2.735,5.869-5.338,5.869
				c-1.468,0-2.002-1.202-2.002-2.736c0-0.601,0.067-1.196,0.2-1.864l4.805-22.683h-9.608l-2.053,9.683
				c-1.118,0.327-2.196,0.519-3.152,0.519c-0.199,0-0.467-0.001-0.733-0.135c0-7.006-2.803-10.676-8.542-10.676
				c-13.745,0-18.282,16.013-18.282,23.687c0,7.606,4.471,10.543,10.676,10.543c8.208,0,14.881-7.74,15.948-20.085
				c1.18-0.193,2.33-0.459,3.436-0.787l-1.834,8.661c-0.334,1.602-0.534,3.069-0.534,4.337c0,5.605,3.136,8.007,7.139,8.007
				c2.804,0,6.54-0.867,9.876-6.339c0.4,4.137,2.803,6.339,6.606,6.339c2.456,0,6.028-0.684,9.258-4.562
				c1.365,2.552,4.187,4.562,8.749,4.562c3.403,0,7.674-1.067,10.477-4.003c1.489-0.875,3.121-1.924,4.803-3.228
				c1.095,5.09,4.831,7.23,10.01,7.23c5.339,0,10.143-2.269,11.544-9.875c-2.136,1.868-5.339,3.536-7.874,3.536
				C469.968,258.252,468.167,256.918,468.167,252.714z M476.842,233.763c1.268,0,1.668,1.068,1.668,2.736
				c0,5.604-4.537,10.743-9.742,11.009C470.169,241.17,473.505,233.763,476.842,233.763z M395.111,244.573
				c-1.068,7.874-4.471,13.879-7.74,13.879c-2.536,0-3.403-1-3.403-5.405c0-6.538,4.137-18.75,8.874-18.75
				c1.735,0,2.403,1.068,2.536,3.87c-1.201,0.534-2.068,1.735-2.068,3.604C393.31,243.105,393.71,244.239,395.111,244.573z
				 M441.21,259.319c-2.505,0-3.697-1.118-3.993-3.393c0.123-0.251,0.245-0.508,0.367-0.772c0.388,0.27,0.903,0.362,1.357,0.362
				c1.734,0,2.936-1.668,2.936-3.27c0-1.135-0.667-1.936-1.534-2.336c2.202-4.271,4.069-8.273,5.405-12.611
				c0.666,10.276,1.268,12.345,1.268,15.814C447.016,257.785,444.146,259.319,441.21,259.319z"/>
		</g>
	</g>
</g>
<g>
	<path fill="#333333" d="M488.679,257.036c0.352-0.082,0.867-0.131,1.35-0.131c0.532,0,1.048,0.099,1.391,0.353
		c0.304,0.22,0.517,0.556,0.517,1.006c0,0.818-0.573,1.367-1.277,1.58v0.024c0.352,0.139,0.516,0.523,0.565,1.047
		c0.065,0.688,0.106,1.317,0.188,1.547h-0.982c-0.033-0.131-0.091-0.654-0.14-1.318c-0.049-0.703-0.303-0.957-0.802-0.957h-0.467
		l-0.434,2.275h-0.949L488.679,257.036z M489.161,259.467h0.54c0.736,0,1.244-0.467,1.244-1.063c0-0.517-0.401-0.745-0.941-0.745
		c-0.245,0-0.4,0.017-0.516,0.049L489.161,259.467z"/>
</g>
<g>
	<path fill="#333333" d="M489.846,264.823c-2.81,0-5.097-2.286-5.097-5.097c0-2.81,2.287-5.097,5.097-5.097
		c2.811,0,5.097,2.287,5.097,5.097C494.942,262.537,492.656,264.823,489.846,264.823z M489.846,255.796
		c-2.167,0-3.931,1.764-3.931,3.931c0,2.168,1.764,3.931,3.931,3.931c2.168,0,3.931-1.763,3.931-3.931
		C493.776,257.56,492.014,255.796,489.846,255.796z"/>
</g>
<text transform="matrix(1 0 0 1 316.0811 278.7285)" fill="#333333" font-family="'MyriadPro-SemiboldIt'" font-size="10.4638">Game Development</text>
</svg>
